<?xml version="1.0" encoding="utf-8"?>
<!-- Generator: Adobe Illustrator 16.0.0, SVG Export Plug-In . SVG Version: 6.00 Build 0)  -->
<!DOCTYPE svg PUBLIC "-//W3C//DTD SVG 1.1//EN" "http://www.w3.org/Graphics/SVG/1.1/DTD/svg11.dtd">
<svg version="1.1" id="Слой_1" xmlns="http://www.w3.org/2000/svg" xmlns:xlink="http://www.w3.org/1999/xlink" x="0px" y="0px"
	 width="11px" height="20px" viewBox="0 0 11 20" enable-background="new 0 0 11 20" xml:space="preserve">
<path fill-rule="evenodd" clip-rule="evenodd" fill="#439FD8" d="M1.543,20H1.167c-0.208-0.085-0.417-0.167-0.625-0.293
	c-0.333-0.207-0.458-0.541-0.541-0.915v-0.374c0.083-0.415,0.333-0.749,0.625-1.042l6.958-7.21c0.043-0.041,0.126-0.082,0.167-0.124
	V9.958C7.71,9.918,7.627,9.875,7.584,9.834L0.626,2.626C0.335,2.333,0.085,2,0.001,1.585V1.251c0.083-0.25,0.167-0.459,0.291-0.667
	C0.502,0.25,0.833,0.083,1.167,0h0.376c0.415,0.083,0.708,0.375,0.999,0.667c2.625,2.708,5.208,5.375,7.79,8.042
	c0.293,0.334,0.586,0.666,0.667,1.083v0.417c-0.081,0.417-0.374,0.75-0.667,1.082c-2.581,2.667-5.165,5.337-7.79,8.042
	C2.251,19.622,1.958,19.915,1.543,20z"/>
</svg>
