<?xml version="1.0" encoding="utf-8"?>
<!-- Generator: Adobe Illustrator 16.0.0, SVG Export Plug-In . SVG Version: 6.00 Build 0)  -->
<!DOCTYPE svg PUBLIC "-//W3C//DTD SVG 1.1//EN" "http://www.w3.org/Graphics/SVG/1.1/DTD/svg11.dtd">
<svg version="1.1" id="Слой_1" xmlns="http://www.w3.org/2000/svg" xmlns:xlink="http://www.w3.org/1999/xlink" x="0px" y="0px"
	 width="20px" height="11px" viewBox="0 0 20 11" enable-background="new 0 0 20 11" xml:space="preserve">
<path fill-rule="evenodd" clip-rule="evenodd" fill="#439FD8" d="M0,1.542V1.167C0.083,0.958,0.167,0.75,0.291,0.543
	C0.5,0.209,0.833,0.083,1.208,0h0.375C2,0.083,2.333,0.333,2.624,0.625l7.208,6.958c0.043,0.04,0.083,0.126,0.126,0.171h0.083
	c0.041-0.045,0.083-0.131,0.124-0.171l7.208-6.958C17.668,0.333,18.002,0.083,18.417,0h0.333c0.253,0.083,0.456,0.167,0.668,0.293
	C19.751,0.5,19.914,0.834,20,1.167v0.375c-0.086,0.417-0.375,0.708-0.664,1.001c-2.71,2.625-5.379,5.211-8.045,7.79
	c-0.333,0.293-0.667,0.586-1.082,0.668H9.792c-0.417-0.082-0.751-0.375-1.084-0.668c-2.665-2.579-5.333-5.166-8.041-7.79
	C0.374,2.25,0.083,1.959,0,1.542z"/>
</svg>
