<?xml version="1.0" encoding="utf-8"?>
<!-- Generator: Adobe Illustrator 16.0.0, SVG Export Plug-In . SVG Version: 6.00 Build 0)  -->
<!DOCTYPE svg PUBLIC "-//W3C//DTD SVG 1.1//EN" "http://www.w3.org/Graphics/SVG/1.1/DTD/svg11.dtd">
<svg version="1.1" id="Слой_1" xmlns="http://www.w3.org/2000/svg" xmlns:xlink="http://www.w3.org/1999/xlink" x="0px" y="0px"
	 width="11px" height="20px" viewBox="0 0 11 20" enable-background="new 0 0 11 20" xml:space="preserve">
<path fill-rule="evenodd" clip-rule="evenodd" fill="#439FD8" d="M9.457,20h0.376c0.207-0.085,0.417-0.167,0.624-0.293
	c0.334-0.207,0.459-0.541,0.541-0.915v-0.374c-0.082-0.415-0.333-0.749-0.624-1.042l-6.958-7.21
	c-0.043-0.041-0.126-0.082-0.167-0.124V9.958C3.29,9.918,3.373,9.875,3.416,9.834l6.958-7.208C10.665,2.333,10.916,2,10.998,1.585
	V1.251c-0.082-0.25-0.166-0.459-0.29-0.667C10.498,0.25,10.166,0.083,9.833,0H9.457c-0.415,0.083-0.709,0.375-1,0.667
	C5.833,3.375,3.249,6.042,0.668,8.709C0.375,9.043,0.082,9.375,0.001,9.792v0.417c0.081,0.417,0.374,0.75,0.667,1.082
	c2.581,2.667,5.166,5.337,7.789,8.042C8.748,19.622,9.042,19.915,9.457,20z"/>
</svg>
