<?xml version="1.0" encoding="utf-8"?>
<!-- Generator: Adobe Illustrator 16.0.0, SVG Export Plug-In . SVG Version: 6.00 Build 0)  -->
<!DOCTYPE svg PUBLIC "-//W3C//DTD SVG 1.1//EN" "http://www.w3.org/Graphics/SVG/1.1/DTD/svg11.dtd">
<svg version="1.1" id="Слой_1" xmlns="http://www.w3.org/2000/svg" xmlns:xlink="http://www.w3.org/1999/xlink" x="0px" y="0px"
	 width="24px" height="24px" viewBox="0 0 24 24" enable-background="new 0 0 24 24" xml:space="preserve">
<g>
	<path fill-rule="evenodd" clip-rule="evenodd" fill="#439FD8" d="M1.876,7.374h20.252c0.289-2.958-1.794-3.917-3.67-3.624
		c0,0.625,0,1.209,0,1.791c0,0.5-0.375,0.918-0.83,0.918c-0.586,0.041-1.001-0.334-1.042-0.918c0-0.582,0-1.208,0-1.791h-9.17V4
		c0,0.499,0,1.042,0,1.54C7.375,6.083,7.001,6.499,6.458,6.499c-0.499,0-0.916-0.415-0.916-0.958V4.708V3.75
		C3.292,3.457,1.583,4.708,1.876,7.374z M1.876,9.249V9.5v9.792c0,1.624,1.208,2.832,2.832,2.832h14.584
		c1.624,0,2.836-1.208,2.836-2.832V9.5v-0.25H1.876z M0,19.833V6c0-0.043,0.041-0.083,0.041-0.167C0.333,3.707,2.124,2,4.25,1.874
		c0.417-0.041,0.834,0,1.292,0c0-0.25,0-0.5,0-0.667C5.5,0.582,5.709,0.208,6.291,0h0.376c0.584,0.208,0.792,0.625,0.749,1.207
		c-0.041,0.209,0,0.417,0,0.626h9.17c0-0.209,0.041-0.417,0-0.626C16.545,0.625,16.749,0.208,17.335,0h0.374
		c0.586,0.208,0.789,0.582,0.749,1.207c0,0.209,0,0.417,0,0.626h0.834c2.21,0.041,4,1.374,4.545,3.457C23.919,5.5,23.959,5.75,24,6
		v13.833c0,0.041-0.041,0.081-0.041,0.122c-0.252,1.921-1.668,3.459-3.54,3.923C20.208,23.919,20,23.959,19.792,24H4.208
		c-0.041,0-0.082-0.041-0.124-0.041c-1.959-0.252-3.542-1.668-3.959-3.585L0,19.833z"/>
	<path fill-rule="evenodd" clip-rule="evenodd" fill="#439FD8" d="M6.458,19.418c-0.291,0-0.582,0-0.916,0
		c-0.541-0.041-0.958-0.46-0.917-0.96c0-0.541,0.417-0.916,0.917-0.916c0.625,0,1.25,0,1.833,0c0.541,0,0.958,0.415,0.958,0.916
		c0,0.5-0.417,0.919-0.917,0.96C7.084,19.418,6.792,19.418,6.458,19.418z"/>
	<path fill-rule="evenodd" clip-rule="evenodd" fill="#439FD8" d="M17.542,17.542c0.289,0,0.623,0,0.916,0
		c0.545,0,0.919,0.415,0.919,0.916c0,0.5-0.374,0.919-0.919,0.96c-0.627,0-1.249,0-1.872,0c-0.505-0.041-0.92-0.46-0.92-0.96
		c0-0.501,0.415-0.916,0.961-0.916C16.92,17.542,17.209,17.542,17.542,17.542z"/>
	<path fill-rule="evenodd" clip-rule="evenodd" fill="#439FD8" d="M17.542,13.874c-0.333,0-0.622,0-0.915,0
		c-0.546,0-0.961-0.415-0.961-0.958c0-0.499,0.415-0.916,0.961-0.916c0.582,0,1.204,0,1.831,0c0.5,0,0.919,0.417,0.919,0.916
		c0.041,0.543-0.374,0.958-0.919,0.958C18.165,13.874,17.831,13.874,17.542,13.874z"/>
	<path fill-rule="evenodd" clip-rule="evenodd" fill="#439FD8" d="M6.458,13.874c-0.291,0-0.625,0-0.916,0
		c-0.541,0-0.958-0.415-0.917-0.958C4.625,12.417,5.042,12,5.542,12c0.625,0,1.209,0,1.833,0c0.541,0,0.958,0.417,0.958,0.916
		c0,0.543-0.417,0.958-0.958,0.958C7.084,13.874,6.751,13.874,6.458,13.874z"/>
	<path fill-rule="evenodd" clip-rule="evenodd" fill="#439FD8" d="M12,13.874c-0.333,0-0.625,0-0.916,0
		c-0.543,0-0.958-0.415-0.958-0.958c0-0.499,0.415-0.916,0.958-0.916c0.625,0,1.208,0,1.833,0c0.541,0,0.915,0.417,0.915,0.916
		c0.043,0.543-0.374,0.958-0.915,0.958C12.625,13.874,12.293,13.874,12,13.874z"/>
	<path fill-rule="evenodd" clip-rule="evenodd" fill="#439FD8" d="M12,17.542c0.333,0,0.625,0,0.918,0
		c0.541,0,0.915,0.415,0.915,0.916c0.043,0.5-0.374,0.919-0.875,0.96c-0.665,0-1.292,0-1.917,0c-0.5-0.041-0.916-0.46-0.916-0.96
		c0-0.501,0.415-0.916,0.916-0.916C11.375,17.542,11.709,17.542,12,17.542z"/>
</g>
</svg>
