<?xml version="1.0" encoding="utf-8"?>
<!-- Generator: Adobe Illustrator 16.0.0, SVG Export Plug-In . SVG Version: 6.00 Build 0)  -->
<!DOCTYPE svg PUBLIC "-//W3C//DTD SVG 1.1//EN" "http://www.w3.org/Graphics/SVG/1.1/DTD/svg11.dtd">
<svg version="1.1" id="Слой_1" xmlns="http://www.w3.org/2000/svg" xmlns:xlink="http://www.w3.org/1999/xlink" x="0px" y="0px"
	 width="15px" height="15px" viewBox="0 0 15 15" enable-background="new 0 0 15 15" xml:space="preserve">
<g>
	<path fill-rule="evenodd" clip-rule="evenodd" fill="#2C58A4" d="M9.747,8.625V6.791C9.747,6.333,9.456,6,8.998,6
		c-0.417,0-0.75,0.333-0.75,0.791v3.668c0,0.08,0.042,0.207,0.083,0.332c0.124,0.334,0.458,0.498,0.791,0.457
		c0.374-0.082,0.625-0.375,0.625-0.748V8.625z M5.248,8.625c0,0.58,0,1.207,0,1.834c0,0.166,0.083,0.332,0.167,0.496
		c0.167,0.252,0.5,0.334,0.793,0.252c0.332-0.082,0.541-0.375,0.541-0.748V6.791c0-0.083,0-0.208-0.043-0.291
		C6.582,6.167,6.249,5.959,5.915,6C5.498,6.083,5.248,6.376,5.248,6.75V8.625z M2.25,3.75H2.043c-0.417,0-0.877,0-1.292,0
		c-0.46,0-0.75-0.332-0.75-0.749s0.333-0.75,0.75-0.75h0.124h13.248c0.122,0,0.248,0,0.334,0.043
		c0.374,0.083,0.577,0.415,0.537,0.832C14.953,3.459,14.66,3.75,14.286,3.75c-0.456,0-0.87,0-1.334,0h-0.204V4v8.662
		c0,1.086-0.626,1.92-1.586,2.213c-0.207,0.082-0.455,0.123-0.708,0.123c-1.956,0-3.915,0-5.914,0c-1.332,0-2.29-0.961-2.29-2.291V4
		V3.75z"/>
	<path fill-rule="evenodd" clip-rule="evenodd" fill="#2C58A4" d="M7.497,1.501c-0.498,0-1.041,0-1.54,0
		c-0.376,0-0.667-0.291-0.709-0.665C5.208,0.502,5.415,0.128,5.791,0.045c0.041-0.042,0.124-0.042,0.208-0.042c1,0,1.999,0,3,0
		c0.415,0,0.708,0.292,0.749,0.667C9.789,1.003,9.58,1.377,9.206,1.46C9.122,1.501,8.998,1.501,8.915,1.501H7.497L7.497,1.501z"/>
</g>
</svg>
