<?xml version="1.0" encoding="utf-8"?>
<!-- Generator: Adobe Illustrator 16.0.0, SVG Export Plug-In . SVG Version: 6.00 Build 0)  -->
<!DOCTYPE svg PUBLIC "-//W3C//DTD SVG 1.1//EN" "http://www.w3.org/Graphics/SVG/1.1/DTD/svg11.dtd">
<svg version="1.1" id="Слой_1" xmlns="http://www.w3.org/2000/svg" xmlns:xlink="http://www.w3.org/1999/xlink" x="0px" y="0px"
	 width="22px" height="22px" viewBox="0 0 22 22" enable-background="new 0 0 22 22" xml:space="preserve">
<g>
	<path fill-rule="evenodd" clip-rule="evenodd" fill="#2C58A4" d="M12.499,0.002c0.333,0.124,0.751,0.165,1.082,0.374
		c1.208,0.584,1.876,1.583,1.961,2.958c0,0.583,0,1.208,0,1.792c0,0.499-0.374,0.875-0.879,0.875c-0.455,0-0.832-0.376-0.832-0.875
		c-0.04-0.5,0-1.042,0-1.584c-0.04-1.083-0.748-1.833-1.873-1.833H3.583c-1.125,0-1.874,0.75-1.874,1.875v14.833
		c0,1.123,0.749,1.871,1.874,1.871h8.375c1.125,0,1.833-0.748,1.873-1.871v-1.506c0-0.537,0.334-0.91,0.832-0.91
		c0.505,0,0.879,0.373,0.879,0.91c0,0.713,0,1.42-0.041,2.129c-0.211,1.623-1.627,2.875-3.252,2.957c-0.501,0-1.042,0-1.583,0H3.542
		c-1.583,0-2.834-0.875-3.334-2.336c-0.124-0.373-0.207-0.748-0.207-1.162c0-5,0-10.001,0-15.042c0-1.75,1.208-3.125,2.958-3.416
		c0.042,0,0.083-0.041,0.083-0.041H12.499z"/>
	<path fill-rule="evenodd" clip-rule="evenodd" fill="#2C58A4" d="M19.582,10.125c-0.419-0.417-0.875-0.875-1.29-1.292
		c-0.378-0.375-0.378-0.875-0.044-1.208c0.292-0.332,0.834-0.375,1.167-0.083c0.708,0.71,1.416,1.418,2.124,2.126
		c0.293,0.333,0.415,0.791,0.455,1.249c0.045,0.75-0.244,1.291-0.748,1.791c-0.582,0.584-1.164,1.166-1.75,1.75
		c-0.333,0.334-0.829,0.375-1.163,0.084c-0.419-0.334-0.46-0.875-0.041-1.291c0.375-0.375,0.749-0.793,1.164-1.166l0.167-0.167
		h-0.289H9.415c-0.499,0-0.792-0.209-0.916-0.583c-0.208-0.542,0.167-1.083,0.751-1.166c0.083,0,0.165,0,0.248,0h9.835h0.248V10.125
		z"/>
</g>
</svg>
