<?xml version="1.0" encoding="utf-8"?>
<!-- Generator: Adobe Illustrator 16.0.0, SVG Export Plug-In . SVG Version: 6.00 Build 0)  -->
<!DOCTYPE svg PUBLIC "-//W3C//DTD SVG 1.1//EN" "http://www.w3.org/Graphics/SVG/1.1/DTD/svg11.dtd">
<svg version="1.1" id="Слой_1" xmlns="http://www.w3.org/2000/svg" xmlns:xlink="http://www.w3.org/1999/xlink" x="0px" y="0px"
	 width="20px" height="12px" viewBox="0 0 20 12" enable-background="new 0 0 20 12" xml:space="preserve">
<g>
	<path fill-rule="evenodd" clip-rule="evenodd" fill="#2C58A4" d="M10.112,10.244c2.288-0.041,4.118-2.04,4.077-4.371
		c-0.041-2.288-1.996-4.161-4.287-4.118c-2.33,0.041-4.161,1.997-4.118,4.369C5.825,8.416,7.782,10.285,10.112,10.244z
		 M19.973,6.167C19.766,6.457,19.6,6.79,19.352,7.08c-1.252,1.538-2.748,2.831-4.535,3.749c-1.211,0.577-2.457,0.996-3.789,1.122
		c-2.664,0.247-5.036-0.46-7.24-1.959c-1.416-0.914-2.58-2.121-3.58-3.493C0.124,6.417,0.083,6.29,0,6.167V5.833
		c0.207-0.291,0.374-0.624,0.624-0.916c1.25-1.539,2.748-2.829,4.538-3.745c1.205-0.583,2.454-0.998,3.785-1.124
		c2.663-0.25,5.032,0.459,7.243,1.956c1.414,0.915,2.576,2.122,3.576,3.495c0.08,0.083,0.121,0.21,0.207,0.333V6.167z"/>
	<path fill-rule="evenodd" clip-rule="evenodd" fill="#2C58A4" d="M9.986,3.709c1.25,0,2.248,1.041,2.248,2.248
		c0,1.29-0.998,2.329-2.248,2.329C8.739,8.286,7.739,7.247,7.739,6C7.739,4.75,8.739,3.709,9.986,3.709z"/>
</g>
</svg>
