<?xml version="1.0" encoding="utf-8"?>
<!-- Generator: Adobe Illustrator 16.0.0, SVG Export Plug-In . SVG Version: 6.00 Build 0)  -->
<!DOCTYPE svg PUBLIC "-//W3C//DTD SVG 1.1//EN" "http://www.w3.org/Graphics/SVG/1.1/DTD/svg11.dtd">
<svg version="1.1" id="Слой_1" xmlns="http://www.w3.org/2000/svg" xmlns:xlink="http://www.w3.org/1999/xlink" x="0px" y="0px"
	 width="23px" height="23px" viewBox="0 0 23 23" enable-background="new 0 0 23 23" xml:space="preserve">
<g>
	<path fill-rule="evenodd" clip-rule="evenodd" fill="#2C58A4" d="M22.998,22.666C22.836,22.918,22.625,23,22.332,23H0.668
		c-0.5,0-0.667-0.167-0.667-0.668V0.667c0-0.293,0.083-0.5,0.333-0.667h22.664v2.167c-0.121,0.124-0.203,0.25-0.332,0.291
		c-0.289,0.126-0.582-0.083-0.623-0.415c0-0.167,0-0.334,0-0.543V1H8.126v10.999h0.332H16.5c0.127,0,0.248,0,0.334,0
		c0.248,0.043,0.42,0.21,0.42,0.46c0,0.246-0.131,0.458-0.379,0.498c-0.127,0-0.207,0-0.33,0H8.501H8.126v0.293v2.666
		c0,0.126,0,0.207,0,0.293c-0.042,0.288-0.209,0.419-0.46,0.419c-0.25,0.04-0.458-0.131-0.498-0.379c-0.043-0.126,0-0.248,0-0.333
		V1.333V1H1.001v20.999h6.124l0.043-0.248v-1.917c0-0.415,0.165-0.627,0.458-0.627c0.333-0.04,0.5,0.212,0.5,0.668v1.831v0.293
		h13.872v-9.042h-1.205h-0.627c-0.332,0-0.541-0.207-0.541-0.498c0-0.293,0.209-0.46,0.541-0.46c0.502-0.04,1.002,0,1.543,0h0.334
		v-0.374V4V3.792c0-0.293,0.041-0.5,0.334-0.625c0.248-0.043,0.418,0.041,0.621,0.332V22.666z"/>
</g>
</svg>
