<?xml version="1.0" encoding="utf-8"?>
<!-- Generator: Adobe Illustrator 16.0.0, SVG Export Plug-In . SVG Version: 6.00 Build 0)  -->
<!DOCTYPE svg PUBLIC "-//W3C//DTD SVG 1.1//EN" "http://www.w3.org/Graphics/SVG/1.1/DTD/svg11.dtd">
<svg version="1.1" id="Слой_1" xmlns="http://www.w3.org/2000/svg" xmlns:xlink="http://www.w3.org/1999/xlink" x="0px" y="0px"
	 width="23px" height="20px" viewBox="0 0 23 20" enable-background="new 0 0 23 20" xml:space="preserve">
<g>
	<path fill-rule="evenodd" clip-rule="evenodd" fill="#2C58A4" d="M16.167,1.75h5.917V0.916h-5.917V1.75z M0.919,13.709h8.04v-0.834
		h-8.04V13.709z M8.542,7.75h8.085V6.875H8.542V7.75z M9.876,8.625v0.291V14c0,0.5-0.126,0.625-0.625,0.625h-7h-0.25v0.834h0.208
		H3.71c0.334,0,0.542,0.166,0.542,0.455c0,0.252-0.208,0.42-0.542,0.42H2.375H2.001v2.746l0.167,0.045c2.417,0,4.791,0,7.208-0.045
		c0.083,0,0.25-0.041,0.334-0.082l12.248-9.582c0.085-0.124,0.171-0.208,0.171-0.333l-0.045-4.458V4.416h-0.208h-1.542
		c-0.289,0-0.5-0.208-0.5-0.458C19.793,3.708,20,3.541,20.334,3.5h1.375h0.375V2.666h-4.582v0.293V8c0,0.5-0.126,0.625-0.627,0.625
		h-6.708H9.876z M22.999,9.583c-0.081,0.124-0.162,0.25-0.289,0.333l-12.5,9.791C9.96,19.918,9.71,20,9.417,20
		c-2.541,0-5.125,0-7.666,0c-0.542,0-0.667-0.123-0.667-0.668v-4.457v-0.25c-0.375-0.084-0.832,0.166-1.082-0.334v-2
		c0.124-0.25,0.333-0.334,0.625-0.334h8.083h0.25V8.625H8.21c-0.417,0-0.584-0.124-0.584-0.541V6.582
		c0-0.458,0.167-0.625,0.625-0.625h3.583h4.5h0.293V2.666h-0.748c-0.46,0-0.586-0.167-0.586-0.582V0.542
		C15.293,0.167,15.419,0,15.834,0h6.628c0.248,0,0.415,0.124,0.537,0.332V9.583z"/>
	<path fill-rule="evenodd" clip-rule="evenodd" fill="#2C58A4" d="M19.419,3.958c0,0.25-0.212,0.417-0.46,0.458
		c-0.208,0-0.46-0.208-0.46-0.458c0-0.25,0.212-0.417,0.46-0.417S19.419,3.708,19.419,3.958z"/>
	<path fill-rule="evenodd" clip-rule="evenodd" fill="#2C58A4" d="M5.126,15.459c0.25,0,0.458,0.207,0.458,0.455
		c0,0.211-0.25,0.42-0.499,0.42c-0.209,0-0.417-0.209-0.417-0.42C4.668,15.666,4.876,15.459,5.126,15.459z"/>
</g>
</svg>
