<?xml version="1.0" encoding="utf-8"?>
<!-- Generator: Adobe Illustrator 16.0.0, SVG Export Plug-In . SVG Version: 6.00 Build 0)  -->
<!DOCTYPE svg PUBLIC "-//W3C//DTD SVG 1.1//EN" "http://www.w3.org/Graphics/SVG/1.1/DTD/svg11.dtd">
<svg version="1.1" id="Слой_1" xmlns="http://www.w3.org/2000/svg" xmlns:xlink="http://www.w3.org/1999/xlink" x="0px" y="0px"
	 width="26px" height="26px" viewBox="0 0 26 26" enable-background="new 0 0 26 26" xml:space="preserve">
<g>
	<path fill-rule="evenodd" clip-rule="evenodd" fill="#2D58A4" d="M14.836,2.244H6.547c-0.541,0-0.665,0.126-0.665,0.626v16.576
		c0,0.5,0.124,0.667,0.665,0.667h16.577c0.5,0,0.627-0.167,0.627-0.667V2.871c0-0.5-0.127-0.626-0.627-0.626H14.836z M24.666,11.201
		v8.286c0,0.96-0.541,1.501-1.542,1.501H6.506c-0.958,0-1.499-0.541-1.499-1.501V2.871c0-1,0.541-1.542,1.499-1.542h16.663
		c0.956,0,1.497,0.541,1.497,1.499V11.201z"/>
	<path fill-rule="evenodd" clip-rule="evenodd" fill="#2D58A4" d="M1.507,1.496c-0.25,0.291-0.458,0.5-0.665,0.708
		c-0.25,0.25-0.5,0.25-0.71,0.083c-0.208-0.209-0.165-0.458,0.083-0.708l1.458-1.417c0.209-0.208,0.417-0.208,0.625,0
		c0.5,0.459,1,0.958,1.458,1.458c0.209,0.209,0.209,0.458,0.043,0.667C3.59,2.454,3.34,2.454,3.132,2.244
		c-0.25-0.248-0.417-0.458-0.625-0.665H2.424V1.87v20.699c0,0.667,0.333,1.001,0.999,1.001h20.742h0.208l0.041-0.041
		c-0.204-0.211-0.415-0.414-0.623-0.626c-0.248-0.248-0.248-0.496-0.085-0.708c0.211-0.207,0.459-0.167,0.708,0.081l1.374,1.375
		c0.253,0.253,0.293,0.419,0.045,0.708l-1.419,1.42c-0.249,0.248-0.497,0.288-0.708,0.085c-0.203-0.211-0.163-0.464,0.085-0.712
		c0.208-0.207,0.419-0.415,0.623-0.663H24.08H3.466c-0.667,0-1.208-0.211-1.625-0.752c-0.25-0.374-0.333-0.753-0.333-1.168V9.493
		v-7.58V1.496z"/>
	<path fill-rule="evenodd" clip-rule="evenodd" fill="#2D58A4" d="M9.42,9.366c1.458-0.832,2.459-0.665,3.417,0.5
		c0.041-0.041,0.041-0.083,0.083-0.124c0.583-0.75,1.332-1.042,2.249-0.875c0.958,0.208,1.582,0.832,1.873,1.79
		c0.043,0.209,0.043,0.46,0.043,0.71c0.041,1.623,0.041,3.248,0.041,4.831c0,0.083,0,0.166-0.041,0.25
		c-0.043,0.207-0.167,0.333-0.376,0.333c-0.248,0.041-0.415-0.083-0.458-0.29c-0.041-0.127-0.041-0.251-0.041-0.334v-4.582
		c0-0.208,0-0.417-0.042-0.625c-0.167-0.791-0.791-1.292-1.583-1.208c-0.708,0.083-1.291,0.708-1.291,1.499
		c-0.041,1.167,0,2.29,0,3.415c0,0.584,0,1.125-0.041,1.668c0,0.291-0.167,0.498-0.46,0.498c-0.25-0.041-0.415-0.207-0.415-0.498
		v-0.25c0-1.501,0-3.041,0-4.542c0-0.248-0.043-0.498-0.083-0.708c-0.209-0.708-0.75-1.125-1.417-1.082
		c-0.665,0-1.166,0.458-1.332,1.125c-0.043,0.208-0.083,0.417-0.083,0.625L9.42,16.157c0,0.083,0,0.167,0,0.25
		c-0.041,0.248-0.165,0.374-0.374,0.374c-0.25,0.041-0.417-0.083-0.5-0.333c0-0.084,0-0.208,0-0.291V8.909V8.701
		c0-0.292,0.209-0.458,0.46-0.458c0.25,0,0.415,0.208,0.415,0.499C9.42,8.909,9.42,9.118,9.42,9.366z"/>
	<path fill-rule="evenodd" clip-rule="evenodd" fill="#2D58A4" d="M19.543,9.45h1.041c0.331,0,0.543,0.167,0.543,0.46
		c0,0.25-0.212,0.417-0.543,0.417c-0.667,0.041-1.375,0.041-2.083,0c-0.207,0-0.416-0.083-0.457-0.292
		c-0.084-0.208,0-0.375,0.124-0.541l1.749-1.708c0.293-0.291,0.376-0.625,0.25-0.958C20,6.369,19.543,6.285,19.209,6.619
		c-0.124,0.124-0.25,0.291-0.417,0.458c-0.207,0.208-0.457,0.208-0.665,0.043c-0.167-0.167-0.167-0.417,0-0.626
		c0.124-0.167,0.291-0.332,0.458-0.498c0.374-0.417,0.874-0.584,1.458-0.417c0.584,0.167,0.872,0.583,0.999,1.165
		c0.166,0.625,0.044,1.208-0.458,1.666C20.25,8.742,19.917,9.076,19.543,9.45z"/>
</g>
</svg>
