<?xml version="1.0" encoding="utf-8"?>
<!-- Generator: Adobe Illustrator 16.0.0, SVG Export Plug-In . SVG Version: 6.00 Build 0)  -->
<!DOCTYPE svg PUBLIC "-//W3C//DTD SVG 1.1//EN" "http://www.w3.org/Graphics/SVG/1.1/DTD/svg11.dtd">
<svg version="1.1" id="Слой_1" xmlns="http://www.w3.org/2000/svg" xmlns:xlink="http://www.w3.org/1999/xlink" x="0px" y="0px"
	 width="20px" height="26px" viewBox="0 0 20 26" enable-background="new 0 0 20 26" xml:space="preserve">
<path fill-rule="evenodd" clip-rule="evenodd" fill="#43A0D9" d="M6.082,10.008c0,2.207,1.75,3.999,3.875,3.999
	c2.166,0,3.957-1.792,3.957-3.958c0-2.207-1.75-4.04-3.874-4.04C7.831,6.008,6.082,7.799,6.082,10.008z M0,10.84
	C0,6.092,2.333,2.384,6.082,0.801c5.792-2.417,12.543,0.832,13.747,7.582c0.545,3.292-0.207,6.249-2.289,8.833
	c-2.207,2.748-4.416,5.498-6.667,8.248c-0.541,0.709-1.208,0.709-1.749,0c-2.333-2.836-4.624-5.666-6.917-8.541
	C0.708,15.006,0.04,12.756,0,10.84z"/>
</svg>
