<?xml version="1.0" encoding="utf-8"?>
<!-- Generator: Adobe Illustrator 16.0.0, SVG Export Plug-In . SVG Version: 6.00 Build 0)  -->
<!DOCTYPE svg PUBLIC "-//W3C//DTD SVG 1.1//EN" "http://www.w3.org/Graphics/SVG/1.1/DTD/svg11.dtd">
<svg version="1.1" id="Слой_1" xmlns="http://www.w3.org/2000/svg" xmlns:xlink="http://www.w3.org/1999/xlink" x="0px" y="0px"
	 width="30px" height="23px" viewBox="0 0 30 23" enable-background="new 0 0 30 23" xml:space="preserve">
<g>
	<path fill-rule="evenodd" clip-rule="evenodd" fill="#43A0D9" d="M0,1.542L0.125,1.25C0.375,0.501,1.042,0,1.833,0
		c0.751,0,1.458,0,2.209,0H27.71C29.085,0,29.5,0.334,30,1.626v0.582c-0.085,0.209-0.126,0.376-0.207,0.584
		c-0.334,0.625-0.879,1.001-1.628,1.042c-0.122,0-0.207,0-0.333,0c-8.496,0-16.958,0-25.458,0c-1.166,0-2-0.374-2.374-1.542V1.542z"
		/>
	<path fill-rule="evenodd" clip-rule="evenodd" fill="#43A0D9" d="M30,11.792c-0.085,0.208-0.126,0.374-0.207,0.542
		c-0.334,0.664-0.879,1.039-1.628,1.084c-0.122,0-0.207,0-0.333,0c-8.496,0-16.958,0-25.458,0c-1.166,0-2-0.379-2.374-1.585v-0.708
		l0.124-0.334c0.25-0.708,0.958-1.166,1.709-1.208h0.333H27.71c1.375,0,1.79,0.334,2.29,1.626V11.792z"/>
	<path fill-rule="evenodd" clip-rule="evenodd" fill="#43A0D9" d="M30,21.373c-0.085,0.171-0.126,0.378-0.207,0.545
		c-0.334,0.667-0.879,1.042-1.628,1.082c-0.122,0-0.207,0-0.333,0c-8.496,0-16.958-0.04-25.458,0c-1.166,0-2-0.374-2.374-1.583
		v-0.708l0.124-0.333c0.25-0.708,0.958-1.209,1.709-1.209h0.333H27.71c1.375,0,1.79,0.293,2.29,1.628V21.373z"/>
</g>
</svg>
