<?xml version="1.0" encoding="utf-8"?>
<!-- Generator: Adobe Illustrator 16.0.0, SVG Export Plug-In . SVG Version: 6.00 Build 0)  -->
<!DOCTYPE svg PUBLIC "-//W3C//DTD SVG 1.1//EN" "http://www.w3.org/Graphics/SVG/1.1/DTD/svg11.dtd">
<svg version="1.1" id="Слой_1" xmlns="http://www.w3.org/2000/svg" xmlns:xlink="http://www.w3.org/1999/xlink" x="0px" y="0px"
	 width="24px" height="24px" viewBox="0 0 24 24" enable-background="new 0 0 24 24" xml:space="preserve">
<g>
	<path fill-rule="evenodd" clip-rule="evenodd" fill="#43A0D9" d="M0,6.541c0.041-0.167,0.083-0.333,0.124-0.5
		C0.25,5.583,0.458,5.125,0.792,4.792C1.416,4.167,2.043,3.54,2.708,2.916c0.5-0.541,1.125-0.792,1.876-0.5
		c0.25,0.126,0.5,0.293,0.665,0.5c0.96,0.917,1.919,1.833,2.834,2.792C8.5,6.124,8.751,6.625,8.667,7.249
		C8.584,7.707,8.333,8.083,8,8.375L6.417,9.957c-0.25,0.293-0.291,0.376-0.126,0.708c0.626,1.375,1.542,2.5,2.543,3.542
		c0.999,1.084,2.083,2.042,3.292,2.834c0.458,0.25,0.875,0.457,1.333,0.708c0.207,0.122,0.333,0.04,0.5-0.124
		c0.542-0.544,1.081-1.125,1.667-1.669c0.207-0.207,0.455-0.415,0.748-0.541c0.546-0.25,1.128-0.124,1.587,0.25
		c0.122,0.084,0.249,0.167,0.375,0.291c0.87,0.875,1.79,1.793,2.665,2.712c0.208,0.204,0.419,0.456,0.541,0.749
		c0.293,0.582,0.167,1.164-0.252,1.624c-0.708,0.793-1.416,1.501-2.165,2.209c-0.415,0.415-0.915,0.627-1.497,0.708
		c-0.041,0-0.126,0.041-0.171,0.041h-0.912l-0.171-0.041c-0.667-0.126-1.334-0.211-1.998-0.415
		c-1.916-0.626-3.668-1.627-5.292-2.791C6.083,18.669,3.709,16,1.917,12.832c-0.708-1.208-1.249-2.458-1.625-3.791
		C0.167,8.582,0.083,8.083,0,7.583V6.541z"/>
	<path fill-rule="evenodd" clip-rule="evenodd" fill="#43A0D9" d="M12.5,0c0.542,0.124,1.083,0.248,1.625,0.375
		c2.46,0.667,4.584,1.957,6.334,3.833c1.623,1.667,2.71,3.667,3.292,5.917c0.085,0.334,0.167,0.708,0.248,1.042v0.083l-1.79,0.334
		c-1.294-5.416-4.623-8.667-10.084-9.792L12.376,0H12.5z"/>
	<path fill-rule="evenodd" clip-rule="evenodd" fill="#43A0D9" d="M12.126,4.792c3.54,0.458,6.458,3.292,6.999,6.792l-1.79,0.291
		c-0.708-2.875-2.499-4.666-5.459-5.25L12.126,4.792z"/>
</g>
</svg>
