<?xml version="1.0" encoding="utf-8"?>
<!-- Generator: Adobe Illustrator 16.0.0, SVG Export Plug-In . SVG Version: 6.00 Build 0)  -->
<!DOCTYPE svg PUBLIC "-//W3C//DTD SVG 1.1//EN" "http://www.w3.org/Graphics/SVG/1.1/DTD/svg11.dtd">
<svg version="1.1" id="Слой_1" xmlns="http://www.w3.org/2000/svg" xmlns:xlink="http://www.w3.org/1999/xlink" x="0px" y="0px"
	 width="25px" height="25px" viewBox="0 0 25 25" enable-background="new 0 0 25 25" xml:space="preserve">
<g>
	<path fill-rule="evenodd" clip-rule="evenodd" fill="#2C58A4" d="M22.461,14.624c-0.086-0.83-0.13-1.624-0.212-2.415
		c-0.04-0.25,0-0.417,0.082-0.626c0.667-1.333,0.879-2.749,0.586-4.208c-0.501-2.625-2.539-4.75-5.127-5.292
		c-2.666-0.542-5.374,0.541-6.873,2.791c-0.333,0.5-0.625,1.001-0.792,1.542c4.833,0.834,7.624,3.625,8.458,8.459
		c0.126-0.04,0.334-0.085,0.46-0.211c0.456-0.289,0.915-0.289,1.416-0.204l0.122,0.041L22.461,14.624z M2.584,22.416h0.208
		c0.917-0.085,1.792-0.167,2.708-0.248c0.126,0,0.293,0,0.417,0.081c1.416,0.708,2.917,0.961,4.5,0.708
		c3.875-0.582,6.666-4.288,6.126-8.207c-0.584-4.167-4.46-7-8.627-6.209c-4.667,0.875-7.292,5.961-5.292,10.25
		c0.209,0.374,0.209,0.708,0.209,1.123C2.708,20.711,2.667,21.541,2.584,22.416z M25,7.959v1.249c0,0.043-0.041,0.083-0.041,0.126
		c-0.081,0.958-0.293,1.874-0.708,2.749c-0.04,0.083-0.04,0.209-0.04,0.333l0.288,3.001l0.127,1.371
		c-1.042-0.082-2.043-0.163-3.044-0.244c-0.83-0.086-1.668-0.253-2.458,0.203c-0.541,0.041-0.667,0.374-0.789,0.879
		c-0.879,3.662-3.127,6.038-6.752,7.08c-0.542,0.171-1.125,0.212-1.667,0.293H8.624c0,0-0.041-0.041-0.083-0.041
		c-1.083-0.081-2.083-0.333-3.083-0.793c-0.083,0-0.167-0.041-0.209-0.041l-3.373,0.334l-1.418,0.126v-0.171l0.376-4.541
		c0.041-0.122,0-0.289-0.042-0.374c-0.208-0.668-0.417-1.335-0.625-1.998C0.083,17.122,0.041,16.748,0,16.374v-1.29
		c0.041-0.379,0.083-0.753,0.167-1.127c0.834-3.915,3.75-6.749,7.666-7.416c0.167,0,0.25-0.083,0.293-0.25
		c0.958-3.125,3.042-5.166,6.207-6.04c0.458-0.126,0.958-0.167,1.459-0.25h1.249l0.875,0.124c3.332,0.584,6.083,3.208,6.832,6.459
		C24.878,7.042,24.919,7.499,25,7.959z"/>
	<path fill-rule="evenodd" clip-rule="evenodd" fill="#2C58A4" d="M8.292,13.249H6.333C6.374,12.333,6.75,11.542,7.458,11
		C8.75,10,10.5,10.167,11.542,11.417c0.999,1.205,0.875,2.958-0.291,4.041c-0.167,0.167-0.376,0.334-0.543,0.46
		c-0.332,0.248-0.499,0.582-0.458,1.001c0,0.081,0,0.163,0,0.248H8.333c-0.083-0.875,0.041-1.664,0.708-2.331
		c0.25-0.293,0.583-0.546,0.875-0.839c0.334-0.288,0.417-0.708,0.25-1.123C10,12.5,9.583,12.25,9.167,12.292
		C8.708,12.376,8.417,12.667,8.292,13.249z"/>
	<rect x="8.333" y="19.165" fill-rule="evenodd" clip-rule="evenodd" fill="#2C58A4" width="1.917" height="1.921"/>
</g>
</svg>
