<?xml version="1.0" encoding="utf-8"?>
<!-- Generator: Adobe Illustrator 16.0.0, SVG Export Plug-In . SVG Version: 6.00 Build 0)  -->
<!DOCTYPE svg PUBLIC "-//W3C//DTD SVG 1.1//EN" "http://www.w3.org/Graphics/SVG/1.1/DTD/svg11.dtd">
<svg version="1.1" id="Слой_1" xmlns="http://www.w3.org/2000/svg" xmlns:xlink="http://www.w3.org/1999/xlink" x="0px" y="0px"
	 width="40px" height="40px" viewBox="0 0 40 40" enable-background="new 0 0 40 40" xml:space="preserve">
<path fill-rule="evenodd" clip-rule="evenodd" fill="#FFFFFF" d="M0,20.001C0,8.958,8.956,0,20,0s20,8.958,20,20.001
	C40,31.04,31.044,40,20,40S0,31.04,0,20.001z"/>
<path fill-rule="evenodd" clip-rule="evenodd" fill="#439FD8" d="M18.043,30.503h-0.375c-0.211-0.086-0.419-0.171-0.626-0.293
	c-0.334-0.212-0.46-0.545-0.541-0.92v-0.333c0.081-0.456,0.333-0.79,0.622-1.083l6.958-7.208c0.045-0.041,0.131-0.083,0.171-0.124
	v-0.083c-0.04-0.043-0.126-0.084-0.171-0.127l-6.958-7.208c-0.289-0.291-0.541-0.625-0.622-1.082v-0.291
	c0.081-0.25,0.166-0.46,0.288-0.667c0.212-0.333,0.546-0.5,0.879-0.584h0.375c0.415,0.083,0.708,0.375,0.997,0.667
	c2.628,2.708,5.212,5.375,7.792,8.041c0.293,0.333,0.586,0.667,0.667,1.084v0.417c-0.081,0.417-0.374,0.748-0.667,1.082
	c-2.58,2.665-5.164,5.335-7.792,8.045C18.751,30.124,18.458,30.417,18.043,30.503z"/>
</svg>
