<?xml version="1.0" encoding="utf-8"?>
<!-- Generator: Adobe Illustrator 16.0.0, SVG Export Plug-In . SVG Version: 6.00 Build 0)  -->
<!DOCTYPE svg PUBLIC "-//W3C//DTD SVG 1.1//EN" "http://www.w3.org/Graphics/SVG/1.1/DTD/svg11.dtd">
<svg version="1.1" id="Слой_1" xmlns="http://www.w3.org/2000/svg" xmlns:xlink="http://www.w3.org/1999/xlink" x="0px" y="0px"
	 width="27px" height="23px" viewBox="0 0 27 23" enable-background="new 0 0 27 23" xml:space="preserve">
<path fill="#439FD8" d="M27,0.958c-0.126,0.667-0.294,1.292-0.42,1.959l-2.623,12.997l-1.164,5.875
	c-0.212,1.041-1.547,1.582-2.417,0.916l-9.627-7.25l-0.167-0.123l0.625-0.545l11.374-10.08c0.126-0.125,0.293-0.291,0.415-0.498
	c0.126-0.21,0-0.417-0.289-0.334C22.5,3.917,22.247,4,22.039,4.125c-1.834,1.166-3.665,2.291-5.498,3.416l-9.374,5.916
	c-0.21,0.085-0.333,0.127-0.543,0.045l-5.458-1.794C0.625,11.541,0.207,11.25,0,10.707v-0.332c0.207-0.459,0.625-0.667,1.042-0.833
	l23.207-8.957c0.497-0.209,1.041-0.417,1.538-0.542C26.414-0.083,26.748,0.083,27,0.584V0.958L27,0.958z"/>
</svg>
