<?xml version="1.0" encoding="utf-8"?>
<!-- Generator: Adobe Illustrator 16.0.0, SVG Export Plug-In . SVG Version: 6.00 Build 0)  -->
<!DOCTYPE svg PUBLIC "-//W3C//DTD SVG 1.1//EN" "http://www.w3.org/Graphics/SVG/1.1/DTD/svg11.dtd">
<svg version="1.1" id="Слой_1" xmlns="http://www.w3.org/2000/svg" xmlns:xlink="http://www.w3.org/1999/xlink" x="0px" y="0px"
	 width="30px" height="17px" viewBox="0 0 30 17" enable-background="new 0 0 30 17" xml:space="preserve">
<path fill="#439FD8" d="M25.826,10.832c0.996,0.957,2.037,1.875,2.916,2.959c0.374,0.455,0.789,0.955,1.082,1.496
	c0.374,0.789,0,1.627-0.708,1.709l-4.332-0.041c-1.167,0.123-2.041-0.334-2.794-1.123c-0.622-0.584-1.163-1.252-1.749-1.879
	c-0.248-0.289-0.496-0.537-0.789-0.707c-0.586-0.414-1.125-0.293-1.458,0.334c-0.331,0.625-0.415,1.334-0.458,2.041
	c-0.04,1.041-0.374,1.293-1.374,1.334c-2.207,0.123-4.332-0.211-6.248-1.334c-1.749-0.959-3.041-2.375-4.206-3.914
	c-2.25-3.082-3.999-6.455-5.54-9.913c-0.374-0.75-0.126-1.167,0.75-1.208c1.416,0,2.874,0,4.289,0c0.541,0,0.958,0.333,1.165,0.915
	C7.167,3.377,8.082,5.209,9.29,6.875c0.291,0.417,0.625,0.875,1.084,1.208c0.498,0.333,0.915,0.209,1.123-0.333
	c0.167-0.374,0.209-0.749,0.25-1.125c0.126-1.332,0.126-2.664-0.041-3.956c-0.126-0.834-0.583-1.375-1.416-1.542
	C9.874,1.087,9.915,0.92,10.124,0.67c0.374-0.417,0.665-0.667,1.332-0.667h4.956c0.791,0.167,0.958,0.5,1.041,1.292v5.497
	c0,0.293,0.167,1.208,0.708,1.375c0.459,0.167,0.75-0.167,0.998-0.458c1.168-1.249,2.001-2.75,2.75-4.289
	c0.333-0.667,0.626-1.375,0.919-2.083c0.203-0.5,0.537-0.75,1.123-0.75h4.75c0.122,0,0.289,0,0.415,0
	c0.789,0.167,1.041,0.5,0.789,1.292c-0.415,1.208-1.163,2.249-1.912,3.248c-0.797,1.125-1.627,2.166-2.416,3.291
	C24.87,9.416,24.91,9.914,25.826,10.832z"/>
</svg>
