<?xml version="1.0" encoding="utf-8"?>
<!-- Generator: Adobe Illustrator 16.0.0, SVG Export Plug-In . SVG Version: 6.00 Build 0)  -->
<!DOCTYPE svg PUBLIC "-//W3C//DTD SVG 1.1//EN" "http://www.w3.org/Graphics/SVG/1.1/DTD/svg11.dtd">
<svg version="1.1" id="Слой_1" xmlns="http://www.w3.org/2000/svg" xmlns:xlink="http://www.w3.org/1999/xlink" x="0px" y="0px"
	 width="24px" height="24px" viewBox="0 0 24 24" enable-background="new 0 0 24 24" xml:space="preserve">
<path fill-rule="evenodd" clip-rule="evenodd" fill="#4CAF50" d="M2.848,21.146h0.2c1.05-0.299,2.15-0.547,3.2-0.85
	c0.248-0.098,0.448-0.049,0.648,0.049c2.349,1.402,4.849,1.803,7.498,1.152c5.049-1.25,8.242-6.205,7.393-11.305
	c-0.896-5.054-5.691-8.956-11.292-8.057c-2.298,0.353-4.2,1.351-5.747,3.054c-2.049,2.25-2.899,4.902-2.549,7.903
	c0.151,1.502,0.7,2.952,1.55,4.203c0.1,0.148,0.1,0.301,0.048,0.498C3.7,18.146,3.599,18.496,3.5,18.896L2.848,21.146z M0,24
	l1.298-4.701c0.101-0.402,0.252-0.852,0.352-1.252c0-0.151,0-0.252-0.051-0.35c-1.149-2.053-1.648-4.252-1.45-6.554
	C0.4,7.24,2.199,4.137,5.447,1.987c2.15-1.502,4.598-2.152,7.197-1.952c4.7,0.301,8.198,2.653,10.2,6.904
	c1.898,4.153,1.443,8.257-1.25,12.008c-1.902,2.648-4.602,4.252-7.898,4.701c-2.499,0.4-4.949-0.049-7.199-1.203
	c-0.1-0.049-0.248-0.049-0.398-0.049L0.3,23.951L0,24z"/>
<path fill-rule="evenodd" clip-rule="evenodd" fill="#4CAF50" d="M5.947,9.241c0-1,0.4-1.85,1.101-2.501
	c0.2-0.25,0.497-0.35,0.797-0.35c0.152,0,0.301,0.052,0.5,0c0.301,0,0.501,0.15,0.65,0.401c0.299,0.801,0.65,1.652,1,2.451
	c0.05,0.151,0,0.352-0.1,0.5c-0.2,0.3-0.449,0.65-0.7,0.95c-0.2,0.2-0.2,0.401-0.05,0.652c0.949,1.6,2.299,2.799,4.049,3.501
	c0.301,0.1,0.449,0.051,0.65-0.149l0.848-1.102c0.252-0.25,0.35-0.35,0.65-0.201c0.852,0.401,1.701,0.802,2.498,1.203
	c0.1,0.049,0.201,0.249,0.201,0.4c0,1.25-0.4,1.849-1.75,2.4c-0.75,0.35-1.547,0.25-2.348,0.049
	c-2.848-0.801-4.998-2.601-6.648-4.951c-0.549-0.752-1.001-1.502-1.249-2.402C5.999,9.792,5.999,9.492,5.947,9.241z"/>
</svg>
