<?xml version="1.0" encoding="utf-8"?>
<!-- Generator: Adobe Illustrator 16.0.0, SVG Export Plug-In . SVG Version: 6.00 Build 0)  -->
<!DOCTYPE svg PUBLIC "-//W3C//DTD SVG 1.1//EN" "http://www.w3.org/Graphics/SVG/1.1/DTD/svg11.dtd">
<svg version="1.1" id="Слой_1" xmlns="http://www.w3.org/2000/svg" xmlns:xlink="http://www.w3.org/1999/xlink" x="0px" y="0px"
	 width="200px" height="34px" viewBox="0 0 200 34" enable-background="new 0 0 200 34" xml:space="preserve">
<g>
	<path fill-rule="evenodd" clip-rule="evenodd" fill="#2C58A4" d="M54.885,19.004H60.8c-0.582,0.667-1.332,1.163-2.167,1.416
		c-0.875,0.247-1.75,0.414-2.665,0.414c-2.126,0-3.667-0.496-4.709-1.537c-0.999-1.001-1.54-2.335-1.54-4.004
		c0-1.499,0.498-2.791,1.456-3.832c0.917-1.042,2.375-1.54,4.333-1.54c1.167,0,2.292,0.165,3.334,0.582
		c1.042,0.417,1.999,1.001,2.791,1.792l0.751-0.417c2.624-1.416,4.414-2.374,5.331-2.833c-1.375-1.833-3.083-3.165-5.083-4.04
		c-2-0.875-4.29-1.292-6.914-1.292c-4.583,0-7.958,1.084-10.124,3.208c-2.167,2.167-3.249,5.083-3.249,8.749
		c0,2.333,0.458,4.335,1.332,6.083c0.917,1.75,2.167,3.081,3.749,3.996c1.583,0.92,3.417,1.375,5.458,1.375
		c2.25,0,4.166-0.455,5.708-1.416c1.583-0.96,2.667-2.417,3.249-4.374l0.667,5.497h5.331V14.003H54.885V19.004z"/>
	<path fill-rule="evenodd" clip-rule="evenodd" fill="#2C58A4" d="M80.465,14.294c0.874,0,1.582,0.208,2.124,0.584
		c0.543,0.415,0.917,0.958,1.167,1.623H76.59c0.25-0.708,0.708-1.208,1.375-1.623C78.589,14.502,79.423,14.294,80.465,14.294z
		 M90.045,19.085c0.043-0.252,0.083-0.667,0.083-1.208c0-1.624-0.417-3.042-1.249-4.291c-0.792-1.251-1.959-2.209-3.458-2.917
		c-1.542-0.708-3.332-1.042-5.415-1.042c-3.458,0-6,0.792-7.624,2.417c-1.666,1.583-2.5,3.708-2.5,6.251
		c0,2.664,0.834,4.788,2.5,6.411c1.624,1.628,4.207,2.417,7.624,2.417c2.665,0,4.831-0.415,6.497-1.29
		c1.625-0.834,2.75-1.997,3.417-3.458c-2.25-0.753-4.083-1.502-5.417-2.168c-0.458,0.626-1.042,1.086-1.79,1.415
		c-0.75,0.334-1.583,0.505-2.417,0.505c-1.166,0-2.083-0.253-2.708-0.834c-0.667-0.542-1.042-1.289-1.208-2.209h9.914H90.045z"/>
	<path fill-rule="evenodd" clip-rule="evenodd" fill="#2C58A4" d="M99.128,14.461c0-1.001-0.043-2.541-0.043-4.583
		c0-1.875,0.043-4.25,0.083-7.207h-7.164v3.375c0.041,3.625,0.083,6.416,0.083,8.416c0,2.083-0.042,5.039-0.083,8.871v3.499h7.164
		c-0.041-1.371-0.083-3.621-0.083-6.704C99.085,17.588,99.128,15.669,99.128,14.461z"/>
	<path fill-rule="evenodd" clip-rule="evenodd" fill="#2C58A4" d="M109.336,21.916c-1.041,0-1.588-0.293-1.588-0.871
		c0-0.586,0.586-0.959,1.709-1.17l1.082-0.204c0.838-0.13,1.547-0.252,2.129-0.374c0.582-0.13,1.127-0.334,1.623-0.586V19.5
		c-0.334,0.753-0.957,1.334-1.871,1.749C111.5,21.709,110.457,21.916,109.336,21.916z M112.541,15.045
		c0.545,0,0.961,0.124,1.254,0.29c0.289,0.167,0.455,0.375,0.455,0.625c0,0.293-0.166,0.541-0.455,0.708
		c-0.293,0.209-0.838,0.293-1.588,0.293c-1.789,0-3.332,0.041-4.539,0.208c0.627-0.708,1.334-1.208,2.123-1.583
		C110.584,15.253,111.5,15.045,112.541,15.045z M121.084,18.003c0-2.833-0.752-4.958-2.254-6.333
		c-1.496-1.375-3.832-2.042-6.957-2.042c-2.203,0-4.125,0.417-5.662,1.208c-1.588,0.834-2.959,2-4.166,3.582
		c1.539,0.834,3.084,1.792,4.621,2.917c-1.83,0.293-3.166,0.789-4.039,1.582c-0.875,0.753-1.332,1.794-1.332,3.124
		c0,1.624,0.541,2.877,1.541,3.707c1.041,0.793,2.541,1.213,4.58,1.213c1.752,0,3.168-0.42,4.295-1.213
		c1.123-0.83,1.998-2.083,2.58-3.792v0.793c0,1.209,0.293,2.25,0.834,3.04c0.582,0.797,1.75,1.172,3.502,1.172
		c0.789,0,1.416,0,1.871-0.045c0.502-0.041,1.043-0.126,1.709-0.208l0.123-2.917c-0.496-0.126-0.83-0.33-0.998-0.623
		c-0.166-0.293-0.248-0.793-0.248-1.501V18.003z"/>
	<path fill-rule="evenodd" clip-rule="evenodd" fill="#2C58A4" d="M133.957,21.542c-0.504,0-0.961-0.082-1.502-0.293
		c-0.5-0.204-0.916-0.582-1.289-1.082c-0.373-0.455-0.545-1.082-0.545-1.79c0-1.292,0.293-2.207,0.834-2.75
		c0.582-0.541,1.42-0.832,2.543-0.832c0.959,0,1.75,0.333,2.291,0.999c0.582,0.667,0.873,1.542,0.873,2.583
		c0,0.961-0.291,1.709-0.914,2.29C135.621,21.249,134.828,21.542,133.957,21.542z M137.203,9.628c-1.537,0-2.871,0.333-4.039,1.001
		c-1.127,0.666-1.957,1.707-2.543,3.165l-0.871-3.873h-5.834c0.123,3.833,0.164,7.87,0.164,12.036c0,4.211-0.041,8.21-0.164,12.043
		h6.877c0-1.042-0.045-2.791-0.131-5.33c-0.082-2.587-0.123-4.459-0.123-5.672c0.541,1.421,1.375,2.462,2.498,3.125
		c1.127,0.668,2.457,1.001,4.045,1.001c1.373,0,2.578-0.415,3.66-1.249c1.043-0.834,1.881-1.957,2.463-3.292
		c0.582-1.375,0.875-2.83,0.875-4.373c0-1.583-0.293-3.041-0.875-4.333s-1.42-2.333-2.463-3.125
		C139.701,10.004,138.496,9.628,137.203,9.628z"/>
	<path fill-rule="evenodd" clip-rule="evenodd" fill="#2C58A4" d="M153.908,21.916c-1.043,0-1.58-0.293-1.58-0.871
		c0-0.586,0.582-0.959,1.709-1.17l1.084-0.204c0.83-0.13,1.537-0.252,2.123-0.374c0.582-0.13,1.123-0.334,1.623-0.586V19.5
		c-0.334,0.753-0.955,1.334-1.875,1.749C156.076,21.709,155.035,21.916,153.908,21.916z M157.117,15.045
		c0.543,0,0.957,0.124,1.25,0.29c0.334,0.167,0.459,0.375,0.459,0.625c0,0.293-0.125,0.541-0.459,0.708
		c-0.293,0.209-0.83,0.293-1.537,0.293c-1.836,0-3.379,0.041-4.586,0.208c0.621-0.708,1.33-1.208,2.123-1.583
		C155.16,15.253,156.076,15.045,157.117,15.045z M165.699,18.003c0-2.833-0.791-4.958-2.287-6.333
		c-1.506-1.375-3.838-2.042-6.916-2.042c-2.254,0-4.168,0.417-5.713,1.208c-1.537,0.834-2.953,2-4.166,3.582
		c1.547,0.834,3.084,1.792,4.627,2.917c-1.836,0.293-3.166,0.789-4.041,1.582c-0.875,0.753-1.293,1.794-1.293,3.124
		c0,1.624,0.504,2.877,1.5,3.707c1.043,0.793,2.584,1.213,4.586,1.213c1.748,0,3.164-0.42,4.287-1.213
		c1.123-0.83,2.002-2.083,2.584-3.792v0.793c0,1.209,0.293,2.25,0.834,3.04c0.586,0.797,1.75,1.172,3.498,1.172
		c0.791,0,1.416,0,1.877-0.045c0.5-0.041,1.041-0.126,1.703-0.208l0.131-2.917c-0.504-0.126-0.838-0.33-1.002-0.623
		c-0.17-0.293-0.209-0.793-0.209-1.501V18.003z"/>
	<path fill-rule="evenodd" clip-rule="evenodd" fill="#2C58A4" d="M174.615,9.921c-1.293,0.083-2.293,0.083-3.043,0.083
		c-0.748,0-1.748,0-3.084-0.083c0.172,2.999,0.252,5.832,0.252,8.497c0,2.627-0.08,5.419-0.252,8.413h7.25
		c-0.082-1.79-0.121-3.454-0.121-4.915l0.039-2.041v0.044c0-1.167,0.293-2.128,0.83-2.791c0.547-0.71,1.377-1.084,2.549-1.084
		c0.91,0,2.123,0.291,3.578,0.834l1.002-6.917c-0.586-0.083-1.127-0.124-1.709-0.124c-3.418,0-5.5,1.54-6.375,4.665L174.615,9.921z"
		/>
	<path fill-rule="evenodd" clip-rule="evenodd" fill="#2C58A4" d="M199.986,10.004h-5.875c1.252-0.877,2.416-2.042,3.457-3.501
		h-8.291c-0.121,0.958-0.582,1.792-1.289,2.459c-0.754,0.708-1.623,1.042-2.664,1.042v5.456c1-0.083,1.996-0.125,2.953-0.167
		l-0.041,5.207c0,2.083,0.5,3.711,1.502,4.875c0.955,1.167,2.664,1.749,5.039,1.749c0.961,0,1.75-0.04,2.336-0.04
		c0.623-0.041,1.375-0.167,2.246-0.334c-0.041-1.29-0.041-2.165-0.041-2.539c0-0.749,0.041-1.546,0.127-2.336
		c-0.42,0.127-0.875,0.167-1.334,0.167c-1.209,0-2.084-0.333-2.545-0.956c-0.496-0.627-0.707-1.5-0.707-2.627v-3.29
		c1.547,0.083,3.252,0.166,5.127,0.291V10.004z"/>
</g>
<g>
	<g>
		<path fill-rule="evenodd" clip-rule="evenodd" fill="#43A0D9" d="M16.891,21.835c-1.54-0.126-2.665-0.92-3.749-1.83
			c-0.5-0.419-0.999-0.879-1.499-1.294c-1.792-1.583-3.708-1.626-5.708-0.501c-0.999,0.542-2.04,0.875-3.208,0.708
			c-1.042-0.126-1.957-0.541-2.29-1.666c-0.25-0.791-0.043-1.333,0.665-1.75c1.708-0.958,3.417-1.958,5.167-2.833
			c2.291-1.208,3.999-0.915,5.875,0.834c0.958,0.875,1.957,1.709,3.208,2.083c2,0.667,3.706-0.043,5.248-1.292
			c0.708-0.541,1.333-1.166,2.042-1.666c1.833-1.208,3.623-0.667,5.332,0.291c1.375,0.791,2.75,1.583,4.125,2.333
			c0.665,0.374,1.332,0.667,1.249,1.625c-0.124,0.832-0.834,1.666-1.708,1.914c-1.583,0.46-2.958-0.04-4.29-0.748
			c-1.458-0.749-2.874-0.916-4.333-0.041c-0.541,0.334-1,0.749-1.499,1.123c-0.958,0.749-1.916,1.5-2.917,2.168
			C18.1,21.582,17.475,21.623,16.891,21.835z"/>
	</g>
	<g>
		<path fill-rule="evenodd" clip-rule="evenodd" fill="#43A0D9" d="M33.347,23.918c0,2.584-2.166,3.913-4.666,2.832
			c-0.5-0.208-0.958-0.415-1.416-0.708c-1.666-0.96-3.208-0.582-4.667,0.5c-1.041,0.753-2,1.623-3.041,2.372
			c-2,1.42-3.957,1.294-5.832-0.244c-1.208-1.001-2.5-1.92-3.833-2.75c-1.001-0.667-2.083-0.505-3.167-0.045
			c-0.958,0.46-1.917,0.916-2.915,1.168c-1.084,0.252-2.126-0.081-2.874-0.92c-0.334-0.333-0.5-0.83-0.584-1.245
			c-0.083-0.667-0.043-1.375,0-2.042c0-0.749,0.333-1.001,1.041-0.794c1.583,0.501,2.999,0.208,4.374-0.663
			c1.292-0.838,2.667-1.334,4.166-0.798c0.792,0.253,1.542,0.798,2.25,1.294c0.667,0.501,1.251,1.168,1.959,1.628
			c1.957,1.245,4.123,1.082,5.999-0.419c0.667-0.541,1.249-1.127,1.917-1.664c1.542-1.253,3.249-1.375,5-0.505
			c0.291,0.171,0.582,0.293,0.832,0.464c1.375,0.911,2.791,1.123,4.376,0.663c0.707-0.207,1.041,0.086,1.082,0.794
			C33.347,23.169,33.347,23.544,33.347,23.918z"/>
	</g>
	<g>
		<path fill-rule="evenodd" clip-rule="evenodd" fill="#2D58A4" d="M33.223,11.127c-0.5,0.75-1.542,0.959-2.083,0.667
			c-4.667-2.75-9.333-5.499-13.999-8.206c-0.167-0.083-0.458-0.083-0.625,0c-4.624,2.707-9.29,5.415-13.914,8.123
			c-0.917,0.541-1.792,0.375-2.292-0.417C-0.23,10.419-0.021,9.504,0.854,8.92c1.749-1.041,3.499-2.04,5.248-3.082
			c2.917-1.708,5.832-3.375,8.666-5.167c1.458-0.917,2.667-0.875,4.123,0c3.625,2.25,7.333,4.373,10.999,6.54
			c1.042,0.584,2.083,1.167,3.041,1.875C33.307,9.337,33.722,10.379,33.223,11.127z"/>
	</g>
</g>
</svg>
