<?xml version="1.0" encoding="utf-8"?>
<!-- Generator: Adobe Illustrator 16.0.0, SVG Export Plug-In . SVG Version: 6.00 Build 0)  -->
<!DOCTYPE svg PUBLIC "-//W3C//DTD SVG 1.1//EN" "http://www.w3.org/Graphics/SVG/1.1/DTD/svg11.dtd">
<svg version="1.1" id="Слой_1" xmlns="http://www.w3.org/2000/svg" xmlns:xlink="http://www.w3.org/1999/xlink" x="0px" y="0px"
	 width="24px" height="17px" viewBox="0 0 24 17" enable-background="new 0 0 24 17" xml:space="preserve">
<g>
	<path fill-rule="evenodd" clip-rule="evenodd" fill="#2D58A4" d="M12.293,0c4.174,0.043,8.016,1.546,11.233,4.594
		c0.29,0.251,0.421,0.542,0.29,0.92c-0.163,0.583-0.872,0.75-1.333,0.375c-0.502-0.459-0.959-0.877-1.506-1.252
		c-2.21-1.672-4.673-2.633-7.432-2.881C9.035,1.337,5.069,2.673,1.727,5.764C1.56,5.889,1.352,6.013,1.185,6.096
		C0.81,6.18,0.433,5.972,0.308,5.638c-0.167-0.334-0.125-0.75,0.167-1.001c0.752-0.585,1.462-1.254,2.212-1.756
		C5.528,0.919,8.66,0,12.293,0z"/>
	<path fill-rule="evenodd" clip-rule="evenodd" fill="#2D58A4" d="M12.377,5.012c2.838,0.041,5.595,1.168,7.891,3.424
		c0.375,0.377,0.416,0.877,0.082,1.211c-0.331,0.379-0.832,0.379-1.208,0c-1.418-1.419-3.091-2.379-5.054-2.754
		C10.708,6.264,7.7,7.1,5.11,9.479C4.943,9.646,4.735,9.814,4.484,9.895c-0.334,0.131-0.709-0.123-0.877-0.416
		c-0.167-0.334-0.083-0.709,0.167-1c0.834-0.836,1.796-1.546,2.84-2.131C8.326,5.471,10.122,5.012,12.377,5.012z"/>
	<path fill-rule="evenodd" clip-rule="evenodd" fill="#2D58A4" d="M17.263,12.693c0,0.379-0.167,0.627-0.461,0.795
		c-0.334,0.127-0.669,0.086-0.917-0.168c-0.459-0.457-0.961-0.832-1.546-1.125c-2.045-0.922-4.384-0.547-6.013,1.045
		c-0.208,0.162-0.418,0.334-0.75,0.293c-0.334,0-0.585-0.213-0.712-0.547c-0.125-0.334-0.041-0.629,0.21-0.873
		c0.876-0.881,1.921-1.508,3.089-1.799c2.549-0.668,4.845-0.084,6.811,1.715C17.137,12.236,17.263,12.443,17.263,12.693z"/>
	<path fill-rule="evenodd" clip-rule="evenodd" fill="#2D58A4" d="M13.421,15.621c0,0.75-0.625,1.379-1.378,1.379
		c-0.752,0-1.378-0.629-1.378-1.379c0-0.795,0.626-1.42,1.378-1.42C12.796,14.201,13.421,14.865,13.421,15.621z"/>
</g>
</svg>
