<?xml version="1.0" encoding="utf-8"?>
<!-- Generator: Adobe Illustrator 16.0.0, SVG Export Plug-In . SVG Version: 6.00 Build 0)  -->
<!DOCTYPE svg PUBLIC "-//W3C//DTD SVG 1.1//EN" "http://www.w3.org/Graphics/SVG/1.1/DTD/svg11.dtd">
<svg version="1.1" id="Слой_1" xmlns="http://www.w3.org/2000/svg" xmlns:xlink="http://www.w3.org/1999/xlink" x="0px" y="0px"
	 width="28px" height="28px" viewBox="0 0 28 28" enable-background="new 0 0 28 28" xml:space="preserve">
<g>
	<path fill-rule="evenodd" clip-rule="evenodd" fill="#2D58A4" d="M8.719,2.883l4.871,4.79V0.918
		C11.707,1.04,10.07,1.696,8.719,2.883z M14.409,7.712l4.872-4.83c-1.352-1.187-2.99-1.843-4.872-1.965V7.712z M15.063,8.368h6.881
		c0.119-1.309-1.064-4.094-2.008-4.831L15.063,8.368z M6.058,8.368h6.836L8.023,3.537C6.835,4.93,6.14,6.525,6.058,8.368z
		 M26.156,24.576v-7.08h-3.357v7.08H26.156z M1.84,17.496v7.08h3.358v-7.08H1.84z M18.584,17.496v7.08h3.359v-7.08H18.584z
		 M14.409,24.576h3.356v-7.08h-3.356V24.576z M13.59,17.496h-3.356v7.08h3.356V17.496z M6.016,17.496v7.08h3.398v-7.08H6.016z
		 M27.18,25.4H0.817v1.719H27.18V25.4z M21.943,16.678V9.186h-7.534v7.492H21.943z M6.058,9.186v7.492h7.532V9.186H6.058z
		 M1.023,24.576v-7.123c-0.206,0-0.37,0.043-0.574,0c-0.286,0-0.45-0.121-0.45-0.369c0-0.242,0.164-0.406,0.492-0.406h4.337h0.37
		l0.04-0.328c0-2.497-0.04-4.994,0-7.49c0.042-3.562,1.719-6.264,4.954-7.861c4.996-2.497,11.175,0.492,12.363,5.854
		c0.123,0.696,0.203,1.391,0.203,2.089c0.041,2.455,0,4.911,0,7.367v0.369h0.369h4.217h0.244c0.248,0.039,0.371,0.164,0.412,0.367
		c0,0.207-0.164,0.408-0.369,0.408c-0.203,0.043-0.41,0-0.654,0v7.123h0.611C27.836,24.617,28,24.744,28,24.988
		c0,0.859,0,1.676,0,2.539c0,0.244-0.164,0.367-0.412,0.367h-0.244H0.653C0.082,27.895,0,27.814,0,27.279v-2.168
		c0-0.41,0.122-0.535,0.532-0.535H1.023z"/>
</g>
</svg>
