<?xml version="1.0" encoding="utf-8"?>
<!-- Generator: Adobe Illustrator 16.0.0, SVG Export Plug-In . SVG Version: 6.00 Build 0)  -->
<!DOCTYPE svg PUBLIC "-//W3C//DTD SVG 1.1//EN" "http://www.w3.org/Graphics/SVG/1.1/DTD/svg11.dtd">
<svg version="1.1" id="Слой_1" xmlns="http://www.w3.org/2000/svg" xmlns:xlink="http://www.w3.org/1999/xlink" x="0px" y="0px"
	 width="28px" height="24px" viewBox="0 0 28 24" enable-background="new 0 0 28 24" xml:space="preserve">
<g>
	<path fill-rule="evenodd" clip-rule="evenodd" fill="#2D58A4" d="M11.755,11.51H6.922v5.861h4.833V11.51z M0.981,13.477
		l0.124,0.041c1.106,0.287,1.72,1.064,1.72,2.172v1.721c0,1.969,1.353,3.318,3.319,3.318h7.127c2.827,0,5.693,0,8.566,0
		c1.592,0,2.904-1.109,3.112-2.662c0.12-0.736,0.04-1.561,0.08-2.336c0-1.105,0.696-1.967,1.801-2.213
		c0.044,0,0.128-0.041,0.168-0.041v-0.491H12.74v4.26c0,0.781-0.368,1.148-1.146,1.148H7.044c-0.736,0-1.106-0.412-1.106-1.107
		v-3.973v-0.329H0.981V13.477z M20.729,3.644c0.204,0,0.408-0.04,0.572,0c0.288,0,0.492,0.206,0.492,0.452
		c0,0.286-0.204,0.49-0.492,0.49c-0.696,0.042-1.393,0.042-2.089,0c-0.328,0-0.492-0.204-0.532-0.45
		c0-0.286,0.204-0.492,0.532-0.492c0.164-0.04,0.328,0,0.532,0c0-0.328,0-0.654,0.044-0.982c0.284-1.598,1.677-2.705,3.313-2.583
		c1.601,0.082,2.913,1.434,2.913,3.033c0,2.827,0,5.653,0,8.48v0.41h0.9c0.656,0,1.068,0.41,1.068,1.066c0,0.203,0.04,0.449,0,0.654
		c0,0.41-0.248,0.695-0.656,0.738c-0.904,0.082-1.313,0.531-1.313,1.434c0,0.736,0.04,1.516-0.04,2.252
		c-0.208,1.557-1.108,2.625-2.545,3.238l-0.2,0.084l0.368,1.719c0.08,0.408-0.04,0.656-0.328,0.736
		c-0.288,0.041-0.536-0.123-0.616-0.492l-0.367-1.721H5.448l-0.37,1.721c-0.082,0.369-0.328,0.533-0.614,0.492
		c-0.328-0.08-0.45-0.367-0.368-0.736l0.41-1.719c-0.288-0.17-0.574-0.289-0.862-0.496c-1.146-0.816-1.76-1.922-1.802-3.318
		c0-0.695,0-1.35,0-2.006c0-0.695-0.45-1.148-1.146-1.188c-0.45-0.043-0.696-0.287-0.696-0.779v-0.656
		c0-0.614,0.41-1.023,1.024-1.023H5.57h0.368c0-0.204,0-0.368,0-0.492c0-0.572,0.41-0.982,0.984-0.982c1.598,0,3.237,0,4.833,0
		c0.574,0,0.984,0.41,0.984,0.982c0,0.124,0,0.288,0,0.452h12.25c0-0.042,0.04-0.124,0.04-0.164c0-2.869,0-5.735,0-8.604
		c0-1.188-0.904-2.09-2.049-2.13c-1.228-0.04-2.212,0.86-2.252,2.088V3.644z"/>
	<path fill-rule="evenodd" clip-rule="evenodd" fill="#2D58A4" d="M18.681,6.759c0-0.206,0-0.452,0.04-0.656
		c0-0.328,0.204-0.492,0.492-0.492c0.248,0,0.448,0.164,0.492,0.492c0,0.45,0,0.902,0,1.352c-0.044,0.286-0.244,0.492-0.492,0.492
		c-0.288,0-0.492-0.206-0.532-0.492V7.373V6.759L18.681,6.759z"/>
	<path fill-rule="evenodd" clip-rule="evenodd" fill="#2D58A4" d="M22.162,6.759c0,0.246,0,0.45,0,0.696
		c0,0.286-0.204,0.492-0.492,0.492c-0.244,0-0.488-0.206-0.488-0.492c0-0.45,0-0.902,0-1.352c0-0.286,0.2-0.492,0.488-0.492
		s0.492,0.164,0.492,0.492C22.162,6.307,22.162,6.553,22.162,6.759z"/>
	<path fill-rule="evenodd" clip-rule="evenodd" fill="#2D58A4" d="M18.437,9.503c0,0.204,0.04,0.41,0,0.614
		c0,0.328-0.208,0.532-0.496,0.532c-0.284-0.04-0.49-0.204-0.49-0.532c0-0.41,0-0.86,0-1.31c0-0.288,0.206-0.492,0.49-0.492
		c0.288,0,0.496,0.204,0.496,0.492C18.477,9.053,18.437,9.257,18.437,9.503z"/>
	<path fill-rule="evenodd" clip-rule="evenodd" fill="#2D58A4" d="M20.934,9.503c0,0.204,0,0.41,0,0.614
		c-0.04,0.328-0.204,0.492-0.492,0.532c-0.284,0-0.492-0.204-0.492-0.532c0-0.45,0-0.86,0-1.31c0-0.288,0.208-0.492,0.492-0.492
		c0.244,0,0.492,0.204,0.492,0.492C20.934,9.053,20.934,9.257,20.934,9.503z"/>
	<path fill-rule="evenodd" clip-rule="evenodd" fill="#2D58A4" d="M23.39,9.503c0,0.204,0.04,0.41,0,0.614
		c0,0.328-0.204,0.492-0.448,0.532c-0.288,0-0.536-0.204-0.536-0.532c0-0.45,0-0.86,0-1.31c0-0.288,0.209-0.492,0.496-0.492
		c0.284,0,0.488,0.204,0.488,0.492C23.43,9.053,23.39,9.257,23.39,9.503z"/>
</g>
</svg>
