<?xml version="1.0" encoding="utf-8"?>
<!-- Generator: Adobe Illustrator 16.0.0, SVG Export Plug-In . SVG Version: 6.00 Build 0)  -->
<!DOCTYPE svg PUBLIC "-//W3C//DTD SVG 1.1//EN" "http://www.w3.org/Graphics/SVG/1.1/DTD/svg11.dtd">
<svg version="1.1" id="Слой_1" xmlns="http://www.w3.org/2000/svg" xmlns:xlink="http://www.w3.org/1999/xlink" x="0px" y="0px"
	 width="28px" height="18px" viewBox="0 0 28 18" enable-background="new 0 0 28 18" xml:space="preserve">
<g>
	<path fill-rule="evenodd" clip-rule="evenodd" fill="#2D58A4" d="M13.978,1.075H1.843c-0.655,0-0.819,0.205-0.819,0.819v7.749
		c0,0.615,0.164,0.821,0.779,0.821h24.39c0.576,0,0.783-0.206,0.783-0.781V2.018c0-0.778-0.127-0.943-0.904-0.943H13.978z
		 M14.02,0.05h12.133c1.232,0,1.85,0.615,1.85,1.844v7.789c0,1.15-0.656,1.806-1.766,1.806H1.761C0.614,11.488,0,10.832,0,9.682
		V1.812C0,0.705,0.654,0.05,1.761,0.05H14.02z"/>
	<path fill-rule="evenodd" clip-rule="evenodd" fill="#2D58A4" d="M21.564,14.764c0.205,0.086,0.328,0.209,0.449,0.25
		c0.451,0.248,0.695,0.576,0.695,1.104c0,0.496-0.287,0.822-0.695,1.066c-0.16,0.084-0.328,0.287-0.449,0.455
		c-0.168,0.24-0.328,0.369-0.617,0.285c-0.248-0.045-0.408-0.285-0.367-0.572c0.08-0.412,0.287-0.738,0.656-0.945
		c0.16-0.08,0.289-0.164,0.488-0.328c-0.199-0.121-0.328-0.205-0.488-0.289c-0.408-0.199-0.656-0.572-0.656-1.025
		c0-0.49,0.203-0.857,0.656-1.064c0.244-0.121,0.408-0.244,0.488-0.49c0.084-0.246,0.328-0.369,0.576-0.287
		c0.289,0.041,0.408,0.246,0.408,0.492c-0.039,0.449-0.287,0.777-0.656,1.023L21.564,14.764z"/>
	<path fill-rule="evenodd" clip-rule="evenodd" fill="#2D58A4" d="M6.271,14.764c0.206,0.125,0.368,0.209,0.492,0.289
		c0.411,0.209,0.657,0.576,0.657,1.025c0,0.492-0.206,0.861-0.657,1.064c-0.246,0.125-0.41,0.248-0.532,0.537
		c-0.082,0.199-0.289,0.328-0.535,0.244c-0.286-0.045-0.408-0.205-0.408-0.492c0.04-0.449,0.246-0.777,0.654-1.025l0.493-0.289
		c-0.204-0.119-0.328-0.244-0.45-0.287c-0.451-0.24-0.697-0.568-0.697-1.066c0-0.49,0.246-0.857,0.697-1.064
		c0.204-0.121,0.368-0.244,0.45-0.49c0.082-0.287,0.328-0.369,0.614-0.287c0.289,0.082,0.411,0.287,0.371,0.574
		c-0.082,0.41-0.288,0.738-0.699,0.941L6.271,14.764z"/>
	<path fill-rule="evenodd" clip-rule="evenodd" fill="#2D58A4" d="M13.896,14.764c0.206,0.125,0.328,0.209,0.452,0.25
		c0.451,0.248,0.697,0.576,0.736,1.064c0,0.492-0.246,0.861-0.696,1.064c-0.246,0.125-0.41,0.248-0.492,0.496
		c-0.082,0.24-0.326,0.369-0.573,0.285c-0.288-0.045-0.41-0.244-0.37-0.533c0.042-0.451,0.246-0.777,0.617-0.984l0.49-0.289
		c-0.164-0.119-0.286-0.203-0.408-0.287c-0.453-0.201-0.739-0.568-0.739-1.066c0-0.529,0.286-0.857,0.739-1.104
		c0.162-0.082,0.326-0.287,0.408-0.451c0.164-0.246,0.328-0.369,0.617-0.287c0.286,0.041,0.408,0.246,0.369,0.533
		c-0.043,0.451-0.287,0.779-0.657,0.982L13.896,14.764z"/>
	<path fill-rule="evenodd" clip-rule="evenodd" fill="#2D58A4" d="M13.978,7.142H3.402c-0.574,0-0.821-0.164-0.821-0.492
		c0.04-0.369,0.287-0.533,0.821-0.533H24.6c0.16,0,0.367,0,0.447,0.082c0.164,0.082,0.328,0.286,0.328,0.451
		c0.041,0.246-0.123,0.45-0.367,0.492c-0.164,0.04-0.289,0-0.453,0H13.978z"/>
	<path fill-rule="evenodd" clip-rule="evenodd" fill="#2D58A4" d="M14.02,8.289H24.6c0.08,0,0.16,0,0.283,0
		c0.285,0.042,0.533,0.246,0.533,0.492c0,0.287-0.205,0.493-0.533,0.533c-0.084,0-0.164,0-0.244,0H3.36
		c-0.492,0-0.779-0.164-0.779-0.493c0-0.368,0.247-0.532,0.779-0.532H14.02z"/>
	<path fill-rule="evenodd" clip-rule="evenodd" fill="#2D58A4" d="M14.02,2.59c0.697,0,1.395,0,2.09,0
		c0.453,0,0.738,0.41,0.535,0.738c-0.125,0.122-0.328,0.287-0.492,0.287c-1.436,0-2.872,0-4.307,0c-0.326,0-0.533-0.205-0.533-0.491
		c0-0.288,0.207-0.534,0.533-0.534C12.584,2.59,13.323,2.59,14.02,2.59L14.02,2.59z"/>
</g>
</svg>
