<?xml version="1.0" encoding="utf-8"?>
<!-- Generator: Adobe Illustrator 16.0.0, SVG Export Plug-In . SVG Version: 6.00 Build 0)  -->
<!DOCTYPE svg PUBLIC "-//W3C//DTD SVG 1.1//EN" "http://www.w3.org/Graphics/SVG/1.1/DTD/svg11.dtd">
<svg version="1.1" id="Слой_1" xmlns="http://www.w3.org/2000/svg" xmlns:xlink="http://www.w3.org/1999/xlink" x="0px" y="0px"
	 width="27px" height="21px" viewBox="0 0 27 21" enable-background="new 0 0 27 21" xml:space="preserve">
<g>
	<path fill-rule="evenodd" clip-rule="evenodd" fill="#2D58A4" d="M14.255,0.916l0.326,0.736c0.367,0.857,0.655,1.676,0.613,2.573
		c-0.04,1.185-1.021,2.084-2.164,2.002c-1.185-0.042-2.084-0.981-2.002-2.166c0.042-0.488,0.163-0.979,0.572-1.306
		c0.203-0.164,0.409-0.164,0.612-0.04c0.206,0.162,0.206,0.367,0.082,0.613c-0.04,0.122-0.163,0.245-0.203,0.367
		c-0.206,0.409-0.164,0.776,0.082,1.103c0.245,0.367,0.57,0.53,1.021,0.491c0.815-0.124,1.225-0.736,1.021-1.594
		c-0.164-0.736-0.409-1.388-0.694-2.042c-0.327-0.817-0.327-0.857-1.227-0.694C8.291,1.612,5.636,3.816,4.288,7.616
		C4.125,8.106,4.084,8.146,3.552,8.146c-1.225,0.042-2.286,1.021-2.286,2.287c-0.042,1.267,0.939,2.329,2.246,2.411
		c0.572,0,0.612,0.04,0.817,0.613c2.164,6.657,9.925,8.333,14.868,4.818c1.755-1.225,2.859-2.94,3.555-4.942
		c0.123-0.407,0.243-0.489,0.609-0.489c1.349-0.042,2.33-0.981,2.37-2.287c0-1.348-0.938-2.33-2.286-2.411
		c-0.53,0-0.57-0.04-0.733-0.571c-0.817-2.412-2.33-4.248-4.576-5.515C16.951,1.406,15.685,0.998,14.255,0.916z M13.521,0.019
		c4.575-0.042,8.414,2.655,9.969,6.943c0.08,0.206,0.16,0.287,0.367,0.287c1.631,0.204,2.816,1.552,2.816,3.267
		c-0.04,1.676-1.186,2.982-2.816,3.188c-0.207,0.04-0.287,0.121-0.367,0.324c-1.516,3.926-4.332,6.291-8.541,6.862
		c-4.9,0.693-9.639-1.915-11.436-6.82c-0.04-0.245-0.164-0.326-0.409-0.366c-1.552-0.163-2.777-1.594-2.777-3.188
		c0-1.634,1.225-3.063,2.819-3.267c0.203,0,0.285-0.082,0.367-0.287c1.512-3.921,4.33-6.209,8.497-6.903
		c0.203-0.04,0.409-0.04,0.612-0.04C12.906-0.023,13.234,0.019,13.521,0.019z"/>
	<path fill-rule="evenodd" clip-rule="evenodd" fill="#2D58A4" d="M13.479,16.889c-1.348,0-2.533-0.778-2.982-2.001
		c-0.122-0.327-0.04-0.572,0.245-0.696c0.246-0.122,0.491,0,0.612,0.327c0.409,0.938,1.145,1.432,2.125,1.432
		c1.021,0,1.715-0.494,2.125-1.432c0.163-0.327,0.366-0.449,0.653-0.327c0.284,0.082,0.368,0.369,0.244,0.696
		C16.014,16.11,14.867,16.889,13.479,16.889z"/>
	<path fill-rule="evenodd" clip-rule="evenodd" fill="#2D58A4" d="M8.455,8.719c0.694,0,1.348,0.409,1.634,1.063
		c0.123,0.325,0.042,0.571-0.204,0.694c-0.246,0.122-0.491,0-0.654-0.287c-0.164-0.325-0.409-0.53-0.776-0.53
		S7.8,9.863,7.637,10.188c-0.122,0.327-0.367,0.409-0.612,0.287c-0.285-0.082-0.367-0.369-0.245-0.694
		C7.066,9.127,7.719,8.719,8.455,8.719z"/>
	<path fill-rule="evenodd" clip-rule="evenodd" fill="#2D58A4" d="M18.543,8.719c0.733,0,1.388,0.409,1.636,1.063
		c0.163,0.285,0.079,0.571-0.208,0.694c-0.238,0.122-0.486,0-0.61-0.287c-0.163-0.325-0.451-0.53-0.817-0.53
		c-0.367,0-0.614,0.205-0.774,0.53c-0.163,0.287-0.406,0.409-0.653,0.287c-0.248-0.123-0.328-0.369-0.208-0.694
		C17.154,9.127,17.809,8.719,18.543,8.719z"/>
</g>
</svg>
