<?xml version="1.0" encoding="utf-8"?>
<!-- Generator: Adobe Illustrator 16.0.0, SVG Export Plug-In . SVG Version: 6.00 Build 0)  -->
<!DOCTYPE svg PUBLIC "-//W3C//DTD SVG 1.1//EN" "http://www.w3.org/Graphics/SVG/1.1/DTD/svg11.dtd">
<svg version="1.1" id="Слой_1" xmlns="http://www.w3.org/2000/svg" xmlns:xlink="http://www.w3.org/1999/xlink" x="0px" y="0px"
	 width="27px" height="27px" viewBox="0 0 27 27" enable-background="new 0 0 27 27" xml:space="preserve">
<g>
	<path fill-rule="evenodd" clip-rule="evenodd" fill="#2D58A4" d="M24.624,26.96h0.582c0.167-0.041,0.379-0.082,0.541-0.167
		c0.627-0.293,1.002-0.794,1.213-1.42l0.041-0.204V1.792c-0.041-0.167-0.086-0.333-0.171-0.5c-0.289-0.667-0.79-1.042-1.457-1.251
		L25.206,0H1.791C1.498,0.125,1.165,0.208,0.917,0.375C0.373,0.708,0.166,1.209-0.001,1.792v23.376
		c0.124,0.582,0.374,1.083,0.875,1.416c0.291,0.163,0.625,0.248,0.917,0.375h3.292L5.167,27h19.376L24.624,26.96z M3.832,25.918
		H2.29c-0.832,0-1.249-0.415-1.249-1.209V2.25c0-0.792,0.417-1.208,1.208-1.208h22.497c0.794,0,1.213,0.417,1.213,1.208v22.458
		c0,0.664-0.293,1.042-0.838,1.168c-0.33,0-0.708,0.041-1.042,0.041H5.624C5,25.918,4.125,25.837,3.832,25.918z"/>
	<path fill-rule="evenodd" clip-rule="evenodd" fill="#2D58A4" d="M7.708,6.126v14.706h2.083v-0.289V16.75
		c0-0.419,0.208-0.622,0.625-0.622h3.709c0.25,0,0.541,0,0.831-0.045c2.751-0.334,4.794-3.125,4.248-5.833
		c-0.455-2.458-2.498-4.124-4.996-4.124h-6.25H7.708z M10.873,17.17v0.333v3.748c0,0.5-0.208,0.663-0.665,0.663H7.291
		c-0.458,0-0.667-0.163-0.667-0.663V5.709c0-0.459,0.209-0.667,0.667-0.667c2.333,0,4.667,0,7,0
		c3.497,0.042,6.207,2.917,6.041,6.374c-0.127,3.166-2.792,5.709-5.917,5.754c-1.082,0-2.167,0-3.249,0H10.873z"/>
	<path fill-rule="evenodd" clip-rule="evenodd" fill="#2D58A4" d="M10.873,12.958h3.335c1.082,0,1.916-0.792,1.916-1.833
		s-0.834-1.833-1.916-1.833h-3.125h-0.21V12.958z M9.791,11.084V8.875c0-0.458,0.208-0.666,0.665-0.666c1.251,0,2.543,0,3.835,0
		c1.5,0.041,2.708,1.123,2.875,2.625c0.167,1.416-0.791,2.749-2.21,3.082C14.706,14,14.458,14,14.248,14c-1.249,0-2.541,0-3.792,0
		c-0.458,0-0.665-0.167-0.665-0.625V11.084z"/>
</g>
</svg>
