<?xml version="1.0" encoding="utf-8"?>
<!-- Generator: Adobe Illustrator 16.0.0, SVG Export Plug-In . SVG Version: 6.00 Build 0)  -->
<!DOCTYPE svg PUBLIC "-//W3C//DTD SVG 1.1//EN" "http://www.w3.org/Graphics/SVG/1.1/DTD/svg11.dtd">
<svg version="1.1" id="Слой_1" xmlns="http://www.w3.org/2000/svg" xmlns:xlink="http://www.w3.org/1999/xlink" x="0px" y="0px"
	 width="28px" height="28px" viewBox="0 0 28 28" enable-background="new 0 0 28 28" xml:space="preserve">
<g>
	<path fill-rule="evenodd" clip-rule="evenodd" fill="#2D58A4" d="M6.125,10.71h4.541C10.54,9.751,9.541,8.917,8.457,8.877
		C7.332,8.834,6.333,9.625,6.125,10.71z M17.332,10.71h4.541c-0.208-1.084-1.249-1.876-2.376-1.833
		C18.414,8.917,17.413,9.792,17.332,10.71z M16.248,10.71c-0.084-1.001-1.209-1.876-2.333-1.833
		c-1.082,0.041-2.124,0.916-2.167,1.833H16.248z M24.249,26.168h-20.5c-0.041,0.79,0.043,0.912,0.792,0.912H23.5h0.248
		c0.33-0.041,0.501-0.204,0.501-0.497C24.289,26.457,24.249,26.331,24.249,26.168z M0.958,12.583H27.04v-0.916H0.958V12.583z
		 M24.249,6.543h-20.5v4.167h0.708h0.71c0.291-1.375,1.166-2.376,2.374-2.667c1.542-0.375,2.75,0.167,3.666,1.458
		c0.667-1.001,1.583-1.542,2.791-1.542c1.208-0.041,2.126,0.541,2.789,1.542c0.879-1.208,1.961-1.75,3.418-1.5
		c1.46,0.291,2.294,1.249,2.628,2.708h1.416V6.543z M3.708,5.585h20.581V5.292V1.586c-0.04-0.5-0.166-0.667-0.667-0.667H4.374
		c-0.498,0-0.625,0.167-0.665,0.667v3.707V5.585z M1.125,13.542c0,0.126,0,0.209,0.041,0.333c0.667,3.668,1.375,7.374,2.042,11.081
		c0.041,0.171,0.124,0.252,0.333,0.252c6.958,0,13.958,0,20.915,0c0.208,0,0.289-0.04,0.334-0.252
		c0.541-3.125,1.127-6.207,1.704-9.331l0.379-2.083H1.125z M28,11.417v1.416c0,0.043-0.045,0.083-0.045,0.126l-0.875,4.749
		c-0.5,2.545-0.96,5.083-1.415,7.581c-0.041,0.171-0.082,0.375-0.212,0.46c-0.289,0.208-0.248,0.46-0.248,0.753
		c0,0.456-0.167,0.871-0.541,1.164c-0.167,0.126-0.415,0.211-0.586,0.333H3.916l-0.167-0.081c-0.541-0.212-0.832-0.586-0.915-1.168
		c-0.043-0.167-0.043-0.378-0.043-0.582c0-0.085-0.083-0.171-0.124-0.252c-0.083-0.207-0.293-0.374-0.333-0.627
		c-0.667-3.498-1.292-7.038-1.959-10.539C0.25,14.125,0.124,13.501,0,12.833v-1.416c0.25-0.541,0.667-0.708,1.249-0.708
		c0.5,0.041,1.001,0,1.542,0v-0.334v-8.75c0-0.124,0-0.25,0-0.374c0.126-0.667,0.541-1.042,1.125-1.251h20.162
		c0.919,0.376,1.127,0.71,1.127,1.751v8.623v0.334c0.541,0,1.041,0.041,1.582,0C27.373,10.71,27.788,10.876,28,11.417z"/>
	<path fill-rule="evenodd" clip-rule="evenodd" fill="#2D58A4" d="M5.625,3.71h2.748V2.794H5.625V3.71z M6.958,4.668
		c-0.417,0-0.875,0-1.333,0c-0.584,0-0.958-0.375-0.958-0.958c0-0.291,0-0.584,0-0.875c0-0.584,0.417-0.958,0.999-0.958h2.667
		c0.584,0,1.001,0.374,1.001,0.958c0,0.291,0,0.584,0,0.875c0,0.583-0.376,0.958-0.96,0.958H8.292H6.958z"/>
	<path fill-rule="evenodd" clip-rule="evenodd" fill="#2D58A4" d="M11.207,2.794c-0.167,0-0.333,0-0.5,0
		c-0.25,0-0.415-0.209-0.415-0.46c-0.043-0.208,0.124-0.458,0.375-0.458c0.374,0,0.708,0,1.082,0c0.209,0,0.376,0.25,0.376,0.5
		c0,0.208-0.209,0.374-0.417,0.417h-0.083H11.207L11.207,2.794z"/>
	<path fill-rule="evenodd" clip-rule="evenodd" fill="#2D58A4" d="M11.207,4.668c-0.167,0-0.333,0-0.5,0
		c-0.25-0.041-0.415-0.208-0.415-0.417c-0.043-0.248,0.124-0.499,0.375-0.499c0.333-0.042,0.708-0.042,1.082,0
		c0.25,0,0.417,0.25,0.376,0.499c0,0.209-0.209,0.376-0.46,0.417C11.498,4.668,11.333,4.668,11.207,4.668z"/>
</g>
</svg>
