<?xml version="1.0" encoding="utf-8"?>
<!-- Generator: Adobe Illustrator 16.0.0, SVG Export Plug-In . SVG Version: 6.00 Build 0)  -->
<!DOCTYPE svg PUBLIC "-//W3C//DTD SVG 1.1//EN" "http://www.w3.org/Graphics/SVG/1.1/DTD/svg11.dtd">
<svg version="1.1" id="Слой_1" xmlns="http://www.w3.org/2000/svg" xmlns:xlink="http://www.w3.org/1999/xlink" x="0px" y="0px"
	 width="28px" height="23px" viewBox="0 0 28 23" enable-background="new 0 0 28 23" xml:space="preserve">
<g>
	<path fill-rule="evenodd" clip-rule="evenodd" fill="#2D58A4" d="M25.484,3.277c0,0.367,0.327,0.734,0.693,0.734
		c0.411,0,0.738-0.367,0.738-0.734c0-0.369-0.327-0.694-0.694-0.736C25.812,2.542,25.484,2.869,25.484,3.277z M1.805,2.542
		c-0.369,0-0.694,0.327-0.694,0.736C1.069,3.644,1.436,4.011,1.805,4.011c0.367,0,0.694-0.325,0.694-0.694
		C2.499,2.909,2.213,2.583,1.805,2.542z M21.688,2.747c0-0.369,0-0.654,0-0.981c0-0.366-0.16-0.611-0.53-0.653
		c-0.367-0.04-0.734-0.082-1.104,0c-0.199,0.042-0.447,0.287-0.487,0.45c-0.039,0.367,0,0.775,0,1.185H21.688z M18.466,17.525H6.336
		v1.02h12.129V17.525z M18.466,19.65H6.296v1.145c0,0.857,0.325,1.141,1.182,1.141h9.841c0.164,0,0.326,0,0.492-0.041
		c0.328-0.08,0.61-0.287,0.654-0.654C18.506,20.754,18.466,20.18,18.466,19.65z M19.566,3.807v15.392h1.468
		c0.534,0,0.654-0.119,0.654-0.693V4.174V3.807H19.566z M18.506,16.463c0-5.143-0.04-10.287,0-15.391c0,0-0.084-0.042-0.207-0.042
		H7.439c-0.776,0-1.143,0.369-1.143,1.145v13.962c0,0.084,0.04,0.207,0.04,0.326H18.506z M5.276,3.807c-0.572,0-1.103-0.039-1.635,0
		c-0.082,0-0.204,0.122-0.285,0.246C3.029,4.707,2.335,5.113,1.6,5.032C0.905,4.95,0.293,4.461,0.09,3.768
		c-0.246-0.899,0.203-1.799,1.06-2.124c0.817-0.327,1.797,0,2.206,0.815l0.122,0.287h1.798c0-0.287,0-0.572,0-0.817
		c0.04-0.981,0.733-1.757,1.714-1.878c0.203-0.042,0.367-0.042,0.57-0.042H20.34c0.328,0,0.694-0.04,1.021,0.042
		c0.777,0.164,1.348,0.857,1.388,1.675c0,0.325,0,0.652,0,1.021c0.574,0,1.104,0.04,1.675,0c0.084,0,0.167-0.124,0.207-0.206
		c0.367-0.776,1.181-1.184,2.002-0.979c0.813,0.203,1.344,0.939,1.344,1.754c-0.04,0.817-0.61,1.512-1.428,1.675
		c-0.777,0.164-1.551-0.245-1.918-0.938c-0.084-0.206-0.167-0.285-0.367-0.246c-0.494,0-0.98,0-1.515,0v0.409v14.329
		c0,1.105-0.57,1.676-1.715,1.676h-1.507v0.654c0,1.307-0.777,2.125-2.084,2.125c-3.349,0-6.739,0-10.086,0
		c-1.306,0-2.082-0.818-2.082-2.125V4.216V3.807z"/>
</g>
</svg>
