<?xml version="1.0" encoding="utf-8"?>
<!-- Generator: Adobe Illustrator 16.0.0, SVG Export Plug-In . SVG Version: 6.00 Build 0)  -->
<!DOCTYPE svg PUBLIC "-//W3C//DTD SVG 1.1//EN" "http://www.w3.org/Graphics/SVG/1.1/DTD/svg11.dtd">
<svg version="1.1" id="Слой_1" xmlns="http://www.w3.org/2000/svg" xmlns:xlink="http://www.w3.org/1999/xlink" x="0px" y="0px"
	 width="22px" height="28px" viewBox="0 0 22 28" enable-background="new 0 0 22 28" xml:space="preserve">
<g>
	<path fill-rule="evenodd" clip-rule="evenodd" fill="#2D58A4" d="M20.938,6.343c0-1.229,0-2.42,0-3.566
		c0-0.977-0.722-1.699-1.701-1.699H2.76c-1.018,0-1.698,0.722-1.698,1.699v3.27c0,0.085,0.043,0.211,0.043,0.296H20.938z
		 M1.062,7.449V7.83v18.179c0,1.145,0.68,1.783,1.783,1.783h16.31c1.104,0,1.784-0.639,1.784-1.783V7.789v-0.34H1.062z M22,14.456
		v11.47c0,1.824-1.104,2.928-2.929,2.928H2.93C1.105,28.854,0,27.75,0,25.967V2.947c0-1.827,1.105-2.93,2.93-2.93h16.184
		C20.896,0.017,22,1.12,22,2.905V14.456z"/>
	<path fill-rule="evenodd" clip-rule="evenodd" fill="#2D58A4" d="M17.624,18.535l-0.211,0.083c-1.784,0.892-3.61,0.937-5.395,0.041
		c-0.765-0.382-1.486-0.805-2.208-1.187c-0.85-0.427-1.742-0.68-2.719-0.597c-0.763,0.041-1.57,0.17-2.25,0.639
		c-0.34,0.211-0.552,0.506-0.466,0.979c0.508,3.053,2.971,5.351,6.115,5.649c2.971,0.248,5.86-1.618,6.839-4.505
		C17.454,19.298,17.496,18.958,17.624,18.535z M4.29,16.494c0.127-0.041,0.17-0.041,0.212-0.041c1.868-0.892,3.78-0.892,5.69,0
		c0.809,0.381,1.572,0.846,2.337,1.231c1.486,0.763,3.017,0.722,4.46-0.046c0.681-0.381,0.764-0.547,0.635-1.314
		c-0.51-3.015-2.845-5.265-5.987-5.605c-2.76-0.34-5.563,1.188-6.754,3.992C4.63,15.263,4.502,15.857,4.29,16.494z M18.773,17.432
		c0,4.288-3.484,7.813-7.772,7.813c-4.291,0-7.772-3.525-7.772-7.813c0-4.334,3.482-7.859,7.772-7.859
		C15.289,9.572,18.773,13.098,18.773,17.432z"/>
	<path fill-rule="evenodd" clip-rule="evenodd" fill="#2D58A4" d="M13.846,3.117v1.062h4.372V3.117H13.846z M16.011,2.055h2.165
		c0.681,0,1.148,0.425,1.148,1.103c0,0.34,0,0.68,0,1.021c-0.045,0.636-0.468,1.103-1.106,1.103c-1.443,0-2.929,0-4.372,0
		c-0.639,0-1.105-0.467-1.105-1.103c0-0.34,0-0.722,0-1.062c0.044-0.637,0.467-1.062,1.063-1.062
		C14.567,2.011,15.289,2.055,16.011,2.055z"/>
	<path fill-rule="evenodd" clip-rule="evenodd" fill="#2D58A4" d="M3.95,4.349c-0.213,0-0.425,0-0.68,0
		C2.93,4.305,2.675,4.093,2.675,3.797c0-0.298,0.255-0.554,0.595-0.554c0.467,0,0.892,0,1.36,0c0.381,0,0.593,0.255,0.593,0.554
		c0,0.338-0.212,0.508-0.593,0.552H3.95z"/>
	<path fill-rule="evenodd" clip-rule="evenodd" fill="#2D58A4" d="M7.306,4.349c-0.255,0-0.469,0-0.722,0
		C6.244,4.305,6.03,4.093,6.03,3.797c0-0.298,0.213-0.554,0.554-0.554c0.508,0,0.977,0,1.484,0c0.299,0.043,0.51,0.255,0.51,0.554
		c0,0.296-0.211,0.508-0.552,0.552C7.815,4.349,7.561,4.349,7.306,4.349z"/>
</g>
</svg>
