<?xml version="1.0" encoding="utf-8"?>
<!-- Generator: Adobe Illustrator 16.0.0, SVG Export Plug-In . SVG Version: 6.00 Build 0)  -->
<!DOCTYPE svg PUBLIC "-//W3C//DTD SVG 1.1//EN" "http://www.w3.org/Graphics/SVG/1.1/DTD/svg11.dtd">
<svg version="1.1" id="Слой_1" xmlns="http://www.w3.org/2000/svg" xmlns:xlink="http://www.w3.org/1999/xlink" x="0px" y="0px"
	 width="26px" height="20px" viewBox="0 0 26 20" enable-background="new 0 0 26 20" xml:space="preserve">
<g>
	<path fill-rule="evenodd" clip-rule="evenodd" fill="#2D58A4" d="M2.12,15.709v-0.998H1.08v0.998H2.12z M15.141,17.789v-0.998
		h-4.285v0.998H15.141z M24.916,14.711H3.243v0.998h21.673V14.711z M1.08,13.629h23.836V1.149H1.08V13.629z M-0.001,16.416V0.483
		c0.124-0.292,0.374-0.374,0.707-0.374c8.194,0,16.39,0,24.585,0c0.332,0,0.58,0.082,0.711,0.374v15.933
		c-0.172,0.252-0.42,0.334-0.752,0.334c-2.873,0-5.781,0-8.654,0h-0.332v1.121l0.084,0.041l4.867,0.918
		c0.207,0.041,0.375,0.121,0.455,0.332c0.086,0.207,0.041,0.375-0.08,0.541c-0.168,0.207-0.414,0.207-0.666,0.166
		c-0.959-0.211-1.914-0.373-2.828-0.584c-1.414-0.293-2.83-0.537-4.287-0.455c-0.5,0.041-0.999,0-1.497,0
		c-1.416-0.041-2.83,0.121-4.243,0.414c-1,0.252-2.04,0.414-3.037,0.625c-0.375,0.082-0.666-0.125-0.708-0.414
		c-0.082-0.293,0.126-0.545,0.5-0.625l1.747-0.334l3.163-0.584V16.75H9.399c-2.87,0-5.783,0-8.693,0
		C0.414,16.75,0.164,16.668-0.001,16.416z"/>
</g>
</svg>
