<?xml version="1.0" encoding="utf-8"?>
<!-- Generator: Adobe Illustrator 16.0.0, SVG Export Plug-In . SVG Version: 6.00 Build 0)  -->
<!DOCTYPE svg PUBLIC "-//W3C//DTD SVG 1.1//EN" "http://www.w3.org/Graphics/SVG/1.1/DTD/svg11.dtd">
<svg version="1.1" id="Слой_1" xmlns="http://www.w3.org/2000/svg" xmlns:xlink="http://www.w3.org/1999/xlink" x="0px" y="0px"
	 width="34px" height="21px" viewBox="0 0 34 21" enable-background="new 0 0 34 21" xml:space="preserve">
<g>
	<path fill-rule="evenodd" clip-rule="evenodd" fill="#2C58A4" d="M9.542,5.292H8.374v2.167c0.376-0.208,0.71-0.375,1.042-0.584
		c0.042-0.041,0.126-0.124,0.126-0.208C9.542,6.21,9.542,5.75,9.542,5.292z M27.001,3.75c-0.374,0.376-0.752,0.751-1.082,1.125
		c-0.045,0.043-0.085,0.167-0.045,0.21C26,5.459,26.163,5.833,26.293,6.167l1.579-1.542L27.001,3.75z M24.666,18.71H2.584v1.127
		h22.082V18.71z M1.625,17.501h0.25h22.831c0.211,0,0.333-0.041,0.459-0.252c0.916-1.205,1.835-2.458,2.751-3.664
		c0.167-0.167,0.167-0.293,0.085-0.501C27.001,10.75,26,8.417,25,6.126c-0.082-0.25-0.167-0.293-0.415-0.293
		c-2.084,0-4.169-0.041-6.252,0c-1.125,0.042-2.291,0.126-3.375,0.333C9.833,7.208,5.916,9.959,3.125,14.376
		C2.5,15.336,2,16.378,1.625,17.501z M25.874,21H1.375v-2.29H0c0.375-1.335,0.834-2.584,1.458-3.752
		c1.333-2.582,3.125-4.749,5.458-6.498c0.208-0.126,0.291-0.293,0.291-0.543c0-1.249,0-2.5,0-3.79h3.5V6.25
		c0.126-0.041,0.209-0.083,0.333-0.124c2.333-0.958,4.791-1.459,7.375-1.459c1.916,0,3.792,0,5.709,0
		c0.248,0,0.419-0.042,0.582-0.209c0.748-0.792,1.542-1.583,2.335-2.332l0.83,0.875l0.334-0.333c0.793-0.792,1.627-1.625,2.457-2.46
		C30.794,0.084,30.997,0,31.168,0C32.084,0,33.04,0,34,0v1.168c-0.708,0-1.375,0.041-2.083,0c-0.415-0.043-0.668,0.082-0.961,0.375
		c-0.708,0.749-1.456,1.499-2.205,2.25l0.871,0.832l-0.289,0.293c-0.753,0.749-1.502,1.54-2.25,2.291
		c-0.208,0.167-0.208,0.334-0.122,0.542c0.789,1.792,1.538,3.584,2.327,5.375c0.13,0.25,0.13,0.46-0.081,0.708
		c-1.042,1.373-2.084,2.793-3.125,4.209c-0.122,0.167-0.208,0.375-0.208,0.582C25.834,19.418,25.874,20.211,25.874,21z"/>
	<path fill-rule="evenodd" clip-rule="evenodd" fill="#2C58A4" d="M19.875,13.418c-0.208-0.667-0.792-1.125-1.459-1.168
		c-0.458,0-0.958,0-1.416,0c-0.667,0.043-1.292,0.541-1.458,1.168H19.875z M21.167,13.418c0.293,0,0.586-0.043,0.874,0
		c0.916,0.207,1.502-0.167,1.876-1.042c0.041-0.126,0.082-0.293,0-0.417c-0.374-0.958-0.834-1.959-1.253-2.917
		c-0.081-0.208-0.163-0.291-0.374-0.291c-1.457,0-2.956,0-4.415,0c-2.083,0.041-3.833,0.792-5.334,2.25
		c-0.666,0.708-1.207,1.499-1.583,2.417c0.126,0,0.167,0,0.209,0h3.083l0.126-0.334c0.375-1.168,1.457-1.959,2.708-2
		c0.417,0,0.832,0,1.25,0c1.251,0.041,2.333,0.832,2.707,2L21.167,13.418z M9.375,14.584c0.75-3.543,3.375-6.042,6.624-6.75
		c0.626-0.167,1.334-0.208,1.959-0.25c1.709,0,3.375,0,5.04,0c0.252,0,0.374,0.043,0.459,0.293c0.582,1.416,1.209,2.792,1.795,4.167
		c0.081,0.207,0.081,0.333-0.045,0.5c-0.415,0.625-0.793,1.207-1.208,1.833c-0.082,0.084-0.293,0.208-0.415,0.208
		c-4.668,0-9.375,0-14.042,0H9.375z"/>
	<path fill-rule="evenodd" clip-rule="evenodd" fill="#2C58A4" d="M8.125,12c-1.334,1.168-2.417,2.5-3.292,4.044l-1.001-0.586
		c0.917-1.625,2.083-3.082,3.499-4.333L8.125,12z"/>
	<polygon fill-rule="evenodd" clip-rule="evenodd" fill="#2C58A4" points="9.208,9.709 9.833,10.667 8.958,11.334 8.25,10.417 	"/>
</g>
</svg>
