<?xml version="1.0" encoding="utf-8"?>
<!-- Generator: Adobe Illustrator 16.0.0, SVG Export Plug-In . SVG Version: 6.00 Build 0)  -->
<!DOCTYPE svg PUBLIC "-//W3C//DTD SVG 1.1//EN" "http://www.w3.org/Graphics/SVG/1.1/DTD/svg11.dtd">
<svg version="1.1" id="Слой_1" xmlns="http://www.w3.org/2000/svg" xmlns:xlink="http://www.w3.org/1999/xlink" x="0px" y="0px"
	 width="30px" height="27px" viewBox="0 0 30 27" enable-background="new 0 0 30 27" xml:space="preserve">
<g>
	<path fill-rule="evenodd" clip-rule="evenodd" fill="#2C58A4" d="M27.874,2.049v6.664c0.332-0.208,0.584-0.417,0.836-0.665
		c0.123-0.083,0.205-0.25,0.205-0.376c0-1.499,0-3.04,0-4.539c0-0.124-0.041-0.25-0.082-0.291
		C28.54,2.592,28.206,2.342,27.874,2.049z M6.47,9.005l4.791-1.291V3.133L6.47,1.801V9.005z M12.342,7.547
		c0.083,0.041,0.126,0.041,0.208,0.041c2.166,0.25,4.291,0.875,6.373,1.375c1.164,0.293,1.955,1.334,1.955,2.456
		c0.043,2.166,0.043,4.291-0.498,6.373c-0.209,0.793,0.291,1.501,1.041,1.623c0.334,0.04,0.666,0.04,0.998,0
		c0.5-0.082,0.875-0.415,1.002-0.915c0.207-0.875,0.459-1.794,0.541-2.705c0.121-1.211,0.121-2.458,0.121-3.708
		c0.045-1.291,0.752-2.29,2-2.666c0.127-0.041,0.252-0.083,0.416-0.124c0.252-0.041,0.293-0.167,0.293-0.417
		c0-2.332-0.041-4.665,0-6.954c0-0.291-0.082-0.374-0.334-0.417c-0.83-0.167-1.664-0.333-2.496-0.417
		c-1.416-0.083-2.834,0.25-4.205,0.583c-1.959,0.417-3.875,0.875-5.833,1.334c-0.541,0.124-1.041,0.165-1.582,0.248V7.547z
		 M22.503,20.495v2.961v2.912c0,0.418-0.207,0.626-0.541,0.626s-0.541-0.208-0.541-0.626v-5.454V20.54l-0.293-0.085
		c-1.291-0.293-2.123-1.537-1.789-2.831c0.498-2,0.498-4.081,0.457-6.122c0-0.708-0.457-1.332-1.123-1.456
		c-2.082-0.543-4.165-1.167-6.331-1.375c-0.25,0-0.583,0-0.833,0.083C9.76,9.212,8.012,9.713,6.263,10.213
		c-0.624,0.165-0.874-0.042-0.874-0.709V1.301c0-0.667,0.25-0.833,0.874-0.667c1.749,0.458,3.498,0.958,5.289,1.458
		c0.624,0.167,1.291,0.041,1.915-0.083c2.042-0.458,4.124-0.958,6.163-1.415c1.416-0.333,2.832-0.626,4.25-0.583
		c1.789,0.083,3.457,0.458,4.953,1.415c0.211,0.126,0.373,0.293,0.586,0.417c0.414,0.333,0.58,0.75,0.58,1.291
		c-0.043,1.542-0.043,3.081,0,4.622c0,0.5-0.166,0.834-0.5,1.125c-0.873,0.708-1.873,1.208-2.916,1.542
		c-1.041,0.291-1.414,0.791-1.414,1.875c0.041,1.749,0,3.499-0.42,5.207c-0.08,0.375-0.162,0.789-0.248,1.163
		C24.214,19.666,23.546,20.292,22.503,20.495z"/>
	<path fill-rule="evenodd" clip-rule="evenodd" fill="#2C58A4" d="M3.099,3.883c-0.417-0.167-0.75-0.25-1.084-0.417
		c-0.417-0.167-0.833-0.293-1.249,0c-0.25,0.167-0.5,0-0.667-0.209c-0.167-0.291-0.124-0.541,0.124-0.708
		c0.5-0.374,1.041-0.5,1.667-0.291c0.208,0.083,0.374,0.167,0.582,0.25c0.376,0.167,0.708,0.207,1.041,0
		c0.25-0.167,0.543-0.083,0.708,0.167c0.167,0.291,0.126,0.541-0.124,0.708C3.764,3.59,3.43,3.716,3.099,3.883z"/>
	<path fill-rule="evenodd" clip-rule="evenodd" fill="#2C58A4" d="M1.265,4.798c0.417,0.126,0.75,0.25,1.084,0.374
		c0.417,0.167,0.791,0.292,1.208,0c0.25-0.165,0.5-0.041,0.665,0.209c0.167,0.291,0.126,0.541-0.124,0.708
		C3.64,6.463,3.099,6.589,2.516,6.38C2.306,6.297,2.058,6.213,1.849,6.132c-0.333-0.167-0.667-0.209-1.041,0
		C0.557,6.297,0.267,6.213,0.1,5.922c-0.124-0.25-0.083-0.541,0.167-0.708C0.6,5.048,0.934,4.924,1.265,4.798z"/>
	<path fill-rule="evenodd" clip-rule="evenodd" fill="#2C58A4" d="M3.099,9.255c-0.417-0.126-0.75-0.209-1.084-0.376
		C1.598,8.672,1.182,8.588,0.767,8.838c-0.25,0.167-0.5,0.041-0.667-0.209c-0.167-0.25-0.124-0.498,0.124-0.665
		c0.5-0.376,1.041-0.5,1.667-0.292c0.208,0.083,0.374,0.167,0.582,0.25C2.849,8.088,3.18,8.131,3.514,7.881
		c0.293-0.126,0.543-0.043,0.708,0.207c0.167,0.25,0.126,0.541-0.124,0.708C3.764,8.962,3.43,9.129,3.099,9.255z"/>
</g>
</svg>
